<?xml version="1.0" encoding="UTF-8" standalone="no"?>
<!DOCTYPE svg PUBLIC "-//W3C//DTD SVG 1.1//EN" "http://www.w3.org/Graphics/SVG/1.1/DTD/svg11.dtd">
<svg width="841.92" height="595.20" viewBox="0.00 0.00 3508.00 2480.00" xmlns="http://www.w3.org/2000/svg" xmlns:xlink="http://www.w3.org/1999/xlink">
<g stroke-linecap="round" transform="translate(-721.00, -61.00)" id="Layer_2">
<path d="M1769.90,1734.28 C1769.90,1734.28 1773.65,1737.19 1773.65,1737.19 C1773.24,1735.08 1772.64,1733.65 1771.67,1733.78 C1770.11,1734.02 1768.40,1735.30 1767.40,1736.95 C1767.33,1737.07 1761.41,1746.57 1759.58,1750.46 C1756.56,1756.96 1752.40,1769.82 1749.28,1781.17 C1747.23,1789.07 1744.28,1803.34 1742.99,1812.10 C1742.00,1819.63 1740.94,1834.53 1740.63,1842.11 C1740.46,1852.41 1740.94,1864.17 1741.46,1871.44 C1742.46,1881.71 1743.67,1890.16 1745.66,1900.58 C1747.23,1908.05 1750.31,1919.96 1753.56,1930.01 C1756.17,1937.37 1762.21,1952.55 1765.31,1958.87 C1768.27,1964.86 1776.74,1979.60 1780.85,1985.80 C1785.75,1992.97 1794.03,2003.50 1799.44,2009.09 C1802.03,2011.75 1816.26,2025.36 1821.90,2028.78 C1827.54,2032.15 1841.81,2039.29 1848.69,2040.80 C1852.02,2041.52 1859.60,2042.26 1863.06,2042.08 C1866.64,2041.87 1873.89,2040.55 1876.66,2039.59 C1879.43,2038.62 1886.00,2035.12 1888.98,2033.01 C1891.87,2030.92 1897.36,2025.37 1899.71,2022.38 C1903.98,2016.90 1910.36,2003.83 1912.89,1996.72 C1914.93,1990.91 1918.50,1976.07 1919.97,1969.24 C1920.95,1964.37 1923.32,1949.82 1924.48,1939.62 C1925.86,1923.51 1927.34,1899.82 1926.82,1891.63" fill="none" stroke="rgb(0, 0, 0)" stroke-width="15.00" stroke-opacity="1.00" stroke-linejoin="round"/>
<path d="M2789.56,1919.16 C2789.56,1919.16 2784.70,1917.42 2784.70,1917.42 C2788.85,1923.69 2797.84,1937.16 2802.29,1943.55 C2807.20,1950.41 2815.58,1960.06 2822.98,1967.57 C2825.89,1970.43 2831.65,1975.89 2834.42,1978.00 C2837.74,1980.50 2855.58,1988.91 2860.26,1990.38 C2863.78,1991.46 2869.45,1992.26 2873.06,1992.21 C2880.68,1992.07 2893.05,1990.18 2899.59,1987.67 C2903.06,1986.32 2906.87,1984.30 2911.39,1981.53 C2915.22,1979.13 2920.65,1974.78 2923.10,1972.23 C2927.56,1967.55 2935.80,1956.31 2940.49,1948.59 C2945.34,1940.32 2952.18,1926.95 2954.89,1920.09 C2956.49,1916.00 2961.75,1899.62 2963.00,1894.29 C2964.19,1889.18 2966.08,1876.79 2967.19,1866.68 C2967.97,1858.57 2969.42,1840.74 2969.49,1834.71 C2969.57,1826.76 2968.67,1814.50 2967.40,1804.22 C2965.56,1791.37 2957.77,1757.90 2953.94,1745.17 C2951.67,1738.16 2945.13,1719.87 2943.42,1715.66 C2941.34,1710.55 2934.67,1696.31 2931.55,1691.51" fill="none" stroke="rgb(0, 0, 0)" stroke-width="15.00" stroke-opacity="1.00" stroke-linejoin="round"/>
<path d="M2879.97,1726.54 C2881.58,1727.64 2883.00,1728.04 2884.44,1727.60 C2888.79,1726.25 2902.11,1717.09 2906.64,1712.87 C2909.93,1709.78 2919.92,1698.88 2924.22,1693.04 C2928.38,1687.29 2938.03,1673.32 2940.52,1668.90 C2942.78,1664.87 2950.79,1648.24 2952.30,1644.64 C2954.67,1638.85 2959.26,1625.39 2961.56,1618.10 C2962.83,1613.84 2967.38,1596.00 2968.39,1590.38 C2969.12,1586.28 2971.48,1567.13 2971.79,1562.76 C2973.07,1544.30 2971.43,1531.49 2970.71,1529.25" fill="none" stroke="rgb(0, 0, 0)" stroke-width="15.00" stroke-opacity="1.00" stroke-linejoin="round"/>
<path d="M2972.13,1513.69 C2972.13,1513.69 2969.09,1507.11 2969.09,1507.11 C2967.08,1509.67 2961.01,1523.61 2957.73,1531.28 C2946.01,1559.23 2933.46,1589.21 2932.65,1591.50 C2932.65,1591.50 2933.70,1592.31 2933.70,1592.31 C2935.86,1589.32 2942.31,1575.86 2945.97,1567.59 C2950.56,1556.59 2962.42,1524.00 2966.78,1510.68 C2969.07,1503.30 2971.73,1493.91 2972.33,1491.75 C2970.74,1500.51 2960.77,1536.42 2955.89,1553.77 C2949.63,1575.64 2943.85,1593.81 2940.92,1601.60 C2944.58,1594.58 2955.78,1561.62 2960.24,1547.97 C2972.77,1512.44 2977.36,1492.46 2977.56,1491.57 C2974.11,1505.86 2966.58,1536.73 2962.49,1553.31 C2961.21,1558.21 2956.17,1573.43 2953.83,1579.02 C2953.13,1580.68 2944.30,1601.17 2943.27,1606.16 C2943.14,1606.82 2943.00,1607.49 2942.86,1608.15 C2944.23,1601.49 2947.83,1584.53 2948.85,1580.90 C2950.01,1576.79 2961.90,1539.52 2966.64,1523.63 C2967.69,1519.81 2969.40,1513.59 2970.06,1511.17 C2966.50,1524.59 2956.50,1562.61 2955.57,1565.83 C2953.13,1574.27 2937.79,1615.86 2936.25,1618.95 C2936.25,1618.95 2976.37,1503.84 2976.37,1503.84 C2974.63,1511.66 2964.05,1545.14 2959.37,1559.52 C2953.47,1576.64 2941.95,1605.02 2940.67,1608.83 C2941.75,1605.34 2959.90,1560.73 2962.12,1555.77 C2964.46,1550.57 2972.88,1525.39 2974.22,1521.23 C2974.60,1522.85 2972.80,1529.63 2971.74,1533.63 C2970.02,1540.18 2967.42,1549.90 2963.54,1560.17 C2957.12,1576.82 2943.23,1612.60 2942.81,1612.47 C2943.70,1607.40 2948.05,1596.42 2950.59,1590.01 C2956.88,1573.96 2973.30,1530.98 2973.93,1529.77 C2973.45,1534.13 2969.16,1548.99 2967.04,1556.03 C2961.87,1572.23 2943.86,1617.42 2942.35,1622.19 C2944.83,1612.68 2956.74,1577.98 2962.36,1561.70 C2968.06,1543.99 2976.58,1515.75 2978.54,1505.21 C2979.70,1498.94 2983.16,1485.45 2985.36,1476.95 C2985.74,1475.47 2986.35,1473.11 2986.58,1472.22" fill="none" stroke="rgb(255, 255, 255)" stroke-width="12.50" stroke-opacity="1.00" stroke-linejoin="round"/>
<path d="M2793.99,1158.94 C2786.42,1162.85 2775.29,1169.92 2769.13,1174.05 C2763.05,1178.23 2752.26,1187.07 2747.07,1191.62 C2740.72,1197.38 2731.35,1207.16 2726.37,1213.07 C2720.09,1220.71 2713.37,1229.84 2709.82,1235.53 C2706.03,1241.74 2698.20,1255.48 2694.46,1262.24 C2690.83,1269.18 2684.30,1282.82 2681.40,1289.44 C2678.77,1295.95 2674.11,1308.59 2671.73,1315.74 C2666.96,1331.03 2662.35,1353.13 2660.06,1370.39 C2659.03,1379.21 2658.16,1391.24 2657.86,1398.09 C2657.72,1402.43 2658.13,1420.84 2658.51,1425.31 C2659.24,1433.58 2661.47,1447.46 2663.29,1454.72 C2664.96,1461.34 2669.97,1475.17 2673.29,1482.49 C2676.89,1490.12 2682.18,1499.80 2686.88,1507.09 C2690.89,1513.18 2698.86,1522.54 2707.16,1531.10 C2714.02,1537.87 2721.65,1543.56 2729.16,1548.48 C2737.82,1553.99 2751.46,1561.63 2755.55,1563.62 C2760.57,1566.06 2773.84,1571.38 2782.76,1574.23 C2789.71,1576.42 2802.15,1579.37 2810.41,1580.50 C2814.84,1581.10 2832.07,1582.67 2839.58,1583.15 C2847.35,1583.49 2861.32,1583.74 2869.59,1583.36 C2879.15,1582.76 2891.38,1581.39 2898.51,1580.43 C2907.59,1578.96 2916.50,1577.16 2924.33,1575.02 C2930.14,1573.33 2945.38,1568.16 2952.69,1565.47 C2960.03,1562.57 2974.50,1556.39 2980.91,1553.20 C2989.46,1548.69 2996.88,1544.39 3005.49,1538.86 C3012.10,1534.54 3022.85,1526.31 3028.21,1521.35 C3032.37,1517.48 3042.97,1506.27 3047.91,1500.74 C3052.78,1495.00 3063.04,1482.02 3066.73,1476.45 C3071.28,1469.57 3078.34,1456.88 3081.20,1450.98 C3084.97,1443.16 3089.18,1431.89 3091.11,1424.84 C3092.19,1420.89 3096.19,1401.76 3096.92,1397.12 C3098.38,1386.97 3099.52,1375.54 3099.64,1368.41 C3099.64,1359.30 3098.96,1347.48 3098.14,1340.83 C3097.05,1332.03 3094.19,1319.76 3091.69,1312.39 C3090.28,1308.25 3082.24,1288.76 3080.20,1284.47 C3077.09,1278.09 3069.87,1264.44 3066.45,1259.03 C3062.36,1252.58 3055.58,1243.27 3049.45,1235.65 C3045.00,1230.26 3034.36,1218.78 3030.30,1215.04 C3024.09,1209.42 3015.13,1202.72 3005.93,1196.29 C2999.61,1191.99 2986.13,1182.97 2981.51,1180.31 C2976.56,1177.48 2964.46,1171.69 2957.81,1168.69 C2950.28,1165.46 2937.81,1161.18 2931.51,1159.41 C2924.05,1157.33 2911.05,1154.85 2903.16,1154.36 C2897.04,1153.99 2881.78,1154.42 2874.66,1154.86 C2870.18,1155.19 2851.43,1157.63 2846.28,1158.70 C2839.27,1160.17 2824.89,1164.65 2818.55,1167.30 C2811.91,1170.08 2801.46,1175.45 2794.14,1179.80 C2787.30,1184.00 2773.33,1194.21 2770.52,1196.47 C2765.08,1200.92 2758.63,1207.53 2751.45,1215.47 C2744.36,1223.60 2737.49,1232.19 2732.70,1239.03 C2727.31,1246.97 2720.44,1258.07 2717.00,1264.41 C2708.81,1279.59 2704.68,1295.74 2704.52,1298.10" fill="none" stroke="rgb(0, 0, 0)" stroke-width="15.00" stroke-opacity="1.00" stroke-linejoin="round"/>
<path d="M1900.55,1154.87 C1898.72,1150.96 1896.51,1146.55 1894.29,1144.45 C1892.43,1142.74 1885.35,1139.04 1882.18,1138.16 C1878.46,1137.17 1873.45,1136.47 1870.00,1136.37 C1866.47,1136.29 1860.44,1136.96 1856.31,1137.93 C1849.59,1139.53 1835.41,1145.88 1829.22,1149.56 C1823.86,1152.77 1810.06,1162.73 1804.64,1167.36 C1791.69,1178.66 1775.47,1195.72 1764.38,1209.54 C1759.75,1215.52 1751.00,1228.26 1746.71,1234.95 C1740.89,1244.52 1736.71,1252.15 1732.06,1261.54 C1728.94,1268.23 1722.17,1284.38 1720.70,1288.64 C1718.38,1295.63 1714.23,1309.96 1712.43,1317.17 C1710.79,1324.37 1708.43,1339.06 1707.50,1346.55 C1706.75,1354.01 1705.89,1365.94 1705.71,1376.02 C1705.76,1386.07 1706.36,1398.71 1707.19,1405.99 C1707.73,1410.67 1711.09,1430.21 1712.63,1438.32 C1714.71,1448.37 1717.09,1457.90 1719.92,1466.59 C1721.01,1469.88 1728.70,1490.28 1730.66,1494.66 C1733.86,1501.65 1739.40,1512.88 1744.51,1522.01 C1749.82,1531.01 1756.70,1541.43 1761.10,1547.71 C1763.91,1551.61 1776.96,1567.80 1780.17,1571.38 C1785.30,1576.97 1793.94,1585.87 1801.51,1592.91 C1808.61,1599.25 1818.25,1607.21 1823.69,1611.47 C1827.78,1614.60 1841.63,1624.18 1846.93,1627.24 C1853.38,1630.95 1869.77,1638.82 1874.41,1640.77 C1878.18,1642.35 1894.74,1648.24 1900.55,1649.79 C1907.58,1651.65 1919.86,1653.99 1927.01,1654.82 C1934.85,1655.66 1950.04,1656.05 1957.27,1655.54 C1965.81,1654.92 1980.01,1652.64 1988.34,1650.55 C1995.35,1648.77 2009.69,1643.67 2016.89,1640.45 C2023.46,1637.43 2034.26,1631.52 2040.46,1627.54 C2046.12,1623.84 2058.23,1614.67 2062.39,1611.08 C2066.52,1607.51 2077.66,1596.59 2082.44,1591.32 C2089.02,1583.75 2094.44,1576.91 2100.45,1568.61 C2104.63,1562.61 2113.96,1547.40 2116.15,1543.43 C2118.33,1539.44 2126.31,1523.04 2129.27,1515.95 C2133.28,1505.88 2136.41,1497.00 2139.67,1486.49 C2141.86,1478.95 2146.22,1460.44 2147.10,1455.73 C2147.98,1451.00 2150.59,1432.33 2151.20,1425.23 C2151.69,1418.34 2152.20,1407.17 2152.18,1397.77 C2151.95,1388.09 2151.43,1379.94 2150.44,1370.34 C2149.25,1360.86 2146.64,1346.73 2145.22,1340.51 C2144.15,1335.92 2138.60,1317.56 2137.21,1313.73 C2135.81,1309.89 2128.27,1292.31 2126.33,1288.45 C2123.13,1282.29 2116.28,1270.17 2112.51,1264.32 C2108.58,1258.47 2101.93,1249.19 2095.86,1241.68 C2089.41,1234.09 2083.68,1227.89 2076.57,1220.81 C2069.48,1214.07 2060.63,1206.48 2055.01,1201.93 C2049.38,1197.52 2037.60,1189.23 2031.59,1185.27 C2019.90,1177.74 1993.55,1164.33 1980.97,1159.53 C1974.44,1157.12 1961.09,1152.68 1953.79,1150.71 C1944.62,1148.36 1934.03,1146.31 1923.61,1144.83 C1916.26,1143.94 1898.93,1142.96 1896.04,1142.90 C1888.33,1142.74 1879.30,1143.51 1869.60,1144.91 C1860.35,1146.42 1846.88,1149.13 1839.27,1151.48 C1831.49,1153.91 1818.17,1159.17 1812.24,1162.05 C1797.40,1169.32 1789.33,1177.67 1788.48,1179.42" fill="none" stroke="rgb(0, 0, 0)" stroke-width="15.00" stroke-opacity="1.00" stroke-linejoin="round"/>
<path d="M1793.44,1756.61 C1793.44,1756.61 1793.36,1757.06 1793.36,1757.06 C1792.29,1756.53 1786.82,1745.71 1782.41,1735.57 C1779.23,1727.79 1773.18,1712.50 1770.29,1704.36 C1767.82,1696.77 1763.38,1682.12 1761.98,1675.99 C1760.97,1671.44 1757.72,1654.06 1757.44,1649.90 C1756.44,1634.22 1759.22,1624.31 1760.58,1619.78" fill="none" stroke="rgb(0, 0, 0)" stroke-width="15.00" stroke-opacity="1.00" stroke-linejoin="round"/>
<path d="M1801.24,1678.29 C1797.61,1675.54 1793.02,1670.87 1790.77,1668.31 C1786.21,1662.99 1777.41,1652.02 1773.22,1646.50 C1769.19,1641.08 1761.56,1628.96 1759.18,1624.62 C1756.42,1619.45 1751.05,1607.86 1748.99,1601.92 C1746.94,1595.94 1743.91,1583.58 1742.98,1577.73 C1742.01,1571.50 1741.12,1555.36 1741.51,1547.92 C1741.86,1541.54 1744.52,1522.58 1745.83,1516.94" fill="none" stroke="rgb(0, 0, 0)" stroke-width="15.00" stroke-opacity="1.00" stroke-linejoin="round"/>
<path d="M2971.70,1588.56 C2971.70,1588.56 2972.78,1587.39 2972.78,1587.39 C2972.78,1587.39 2954.11,1598.62 2954.11,1598.62 C2956.10,1596.33 2963.60,1591.63 2973.08,1586.09 C2980.48,1581.78 2995.93,1572.74 2996.66,1571.91 C2993.19,1572.66 2982.24,1579.36 2976.03,1583.19 C2964.20,1590.65 2963.55,1591.03 2962.04,1591.84 C2962.04,1591.84 2992.82,1569.52 2992.82,1569.52 C2992.82,1569.52 2965.47,1584.50 2965.47,1584.50 C2965.47,1584.50 2988.64,1567.26 2988.64,1567.26 C2988.64,1567.26 2969.35,1581.65 2969.35,1581.65 C2969.35,1581.65 2979.40,1573.74 2979.40,1573.74 C2978.21,1573.21 2977.48,1573.28 2975.99,1574.32 C2975.62,1574.58 2970.79,1577.66 2970.42,1577.96 C2970.42,1577.96 2981.28,1571.16 2981.28,1571.16 C2981.28,1571.16 2977.87,1573.22 2977.87,1573.22 C2977.87,1573.22 2978.78,1572.11 2978.78,1572.11 C2978.52,1572.17 2980.34,1574.04 2980.70,1574.79 C2981.21,1575.83 2982.90,1577.18 2984.40,1577.98 C2984.82,1578.20 2985.38,1578.50 2986.08,1578.88" fill="none" stroke="rgb(255, 255, 255)" stroke-width="12.50" stroke-opacity="1.00" stroke-linejoin="round"/>
<path d="M2942.69,1607.75 C2942.69,1607.75 2941.36,1608.92 2941.36,1608.92 C2941.96,1609.82 2947.25,1609.71 2950.24,1609.03 C2955.43,1607.79 2967.16,1601.56 2973.48,1596.90 C2978.15,1593.43 2989.10,1582.02 2992.61,1577.47 C2996.31,1572.62 3004.31,1558.50 3006.67,1552.68 C3010.49,1543.17 3012.50,1533.94 3012.40,1533.02" fill="none" stroke="rgb(0, 0, 0)" stroke-width="15.00" stroke-opacity="1.00" stroke-linejoin="round"/>
<path d="M1759.53,1217.07 C1759.73,1217.84 1759.78,1218.49 1759.68,1219.03 C1759.33,1220.80 1758.86,1221.91 1758.28,1222.37 C1757.02,1223.33 1753.05,1207.75 1752.52,1201.80 C1752.00,1195.77 1752.56,1181.62 1753.75,1174.45 C1755.16,1166.08 1758.24,1154.50 1761.03,1146.65 C1763.44,1139.88 1769.62,1126.78 1774.35,1118.50 C1778.03,1112.16 1784.44,1102.85 1790.89,1094.24 C1796.39,1087.14 1800.90,1082.63 1801.60,1081.93" fill="none" stroke="rgb(0, 0, 0)" stroke-width="15.00" stroke-opacity="1.00" stroke-linejoin="round"/>
<path d="M1788.66,1101.84 C1787.81,1101.50 1787.26,1101.08 1787.19,1100.48 C1787.05,1098.91 1789.45,1093.46 1791.50,1090.46 C1793.93,1086.95 1798.29,1081.37 1800.96,1078.66 C1803.09,1076.52 1809.05,1071.36 1809.97,1070.80 C1810.12,1070.71 1810.33,1070.62 1810.60,1070.53" fill="none" stroke="rgb(0, 0, 0)" stroke-width="15.00" stroke-opacity="1.00" stroke-linejoin="round"/>
<path d="M1781.00,1108.11 C1781.02,1108.19 1781.03,1108.24 1781.03,1108.26 C1781.03,1108.29 1781.02,1108.33 1781.01,1108.37" fill="none" stroke="rgb(0, 0, 0)" stroke-width="15.00" stroke-opacity="1.00" stroke-linejoin="round"/>
<path d="M1779.75,1109.17 C1779.75,1109.17 1779.10,1109.08 1779.10,1109.08 C1779.24,1106.90 1780.71,1102.12 1781.88,1099.10 C1786.01,1088.64 1790.51,1079.06 1795.89,1069.09 C1800.63,1060.59 1805.97,1052.55 1811.86,1044.56 C1817.22,1037.54 1826.14,1027.48 1831.60,1022.02 C1836.46,1017.24 1851.08,1005.48 1855.30,1002.44 C1861.30,998.15 1870.90,992.89 1871.97,992.30" fill="none" stroke="rgb(0, 0, 0)" stroke-width="15.00" stroke-opacity="1.00" stroke-linejoin="round"/>
<path d="M1915.79,1005.25 C1915.79,1005.25 1917.27,1001.74 1917.27,1001.74 C1916.00,1000.82 1910.33,998.61 1907.96,997.92 C1903.53,996.63 1882.85,991.74 1874.10,989.74 C1863.10,987.26 1854.15,985.57 1849.50,986.39 C1849.06,987.31 1895.78,990.82 1900.72,991.89 C1901.10,991.97 1901.83,992.16 1902.94,992.46 C1887.22,992.76 1849.61,993.18 1838.44,992.78 C1834.12,992.63 1831.14,992.65 1827.97,993.63 C1828.90,995.35 1842.72,995.95 1854.70,995.92 C1880.28,995.74 1894.94,996.63 1901.03,997.36 C1894.53,997.63 1832.36,996.07 1828.01,996.35 C1826.43,996.43 1825.51,996.77 1823.91,997.74 C1824.42,998.80 1825.07,999.39 1826.44,999.77 C1828.40,1000.32 1845.42,1004.29 1854.33,1006.95 C1864.35,1010.17 1874.42,1013.95 1881.90,1017.40 C1888.40,1020.45 1893.61,1023.65 1894.67,1024.36 C1894.67,1024.41 1854.11,1009.19 1837.58,1003.09 C1813.98,994.46 1811.98,994.16 1810.90,994.17 C1811.79,995.09 1828.69,1003.50 1835.50,1007.18 C1851.31,1016.36 1873.09,1030.69 1875.57,1032.68 C1875.60,1032.89 1860.72,1024.40 1853.82,1020.60 C1839.72,1013.21 1820.75,1004.82 1816.61,1003.05 C1816.61,1003.05 1866.48,1031.38 1866.48,1031.38 C1863.00,1028.14 1855.68,1023.83 1846.05,1018.99 C1839.62,1015.88 1828.29,1010.77 1828.37,1010.48 C1829.30,1010.58 1831.86,1010.86 1832.52,1010.95 C1832.95,1011.00 1833.79,1011.12 1835.04,1011.30" fill="none" stroke="rgb(255, 255, 255)" stroke-width="12.50" stroke-opacity="1.00" stroke-linejoin="round"/>
<path d="M1802.92,996.46 C1802.10,996.25 1800.92,996.43 1800.31,997.02 C1799.49,997.86 1800.56,1001.89 1802.36,1004.57 C1806.85,1011.21 1812.76,1016.94 1821.63,1024.09 C1828.17,1029.20 1841.15,1037.63 1847.43,1041.51 C1853.62,1045.14 1865.35,1051.59 1871.24,1054.75 C1884.96,1061.63 1911.03,1072.76 1924.38,1077.45 C1937.32,1081.69 1965.02,1088.78 1979.52,1091.22 C1987.81,1092.48 2001.67,1094.04 2006.82,1094.45 C2015.69,1095.01 2029.84,1095.30 2035.13,1095.19 C2044.89,1094.84 2058.19,1093.61 2062.90,1093.02 C2070.11,1092.04 2083.43,1089.05 2090.37,1087.35 C2097.05,1085.65 2107.46,1081.88 2115.25,1078.69 C2120.74,1076.34 2132.25,1070.27 2138.02,1066.59 C2142.99,1063.42 2152.13,1056.47 2157.59,1051.63 C2162.97,1046.78 2171.35,1037.56 2175.20,1032.46 C2177.53,1029.36 2187.01,1013.61 2189.45,1008.48 C2193.22,1000.30 2197.81,988.08 2198.37,982.92 C2198.43,982.40 2198.44,981.37 2198.41,979.84" fill="none" stroke="rgb(0, 0, 0)" stroke-width="15.00" stroke-opacity="1.00" stroke-linejoin="round"/>
<path d="M1860.55,1009.16 C1857.98,1008.45 1854.01,1008.71 1849.92,1009.07 C1846.93,1009.24 1843.43,1009.46 1842.89,1009.72 C1842.89,1009.72 1846.85,1014.59 1846.85,1014.59 C1846.85,1014.59 1840.37,1013.98 1840.37,1013.98 C1840.37,1013.98 1842.02,1017.30 1842.02,1017.30 C1842.02,1017.30 1835.22,1011.96 1835.22,1011.96 C1835.22,1011.96 1837.68,1014.62 1837.68,1014.62 C1837.68,1014.62 1833.92,1012.55 1833.92,1012.55 C1833.92,1012.55 1837.37,1015.75 1837.37,1015.75 C1837.37,1015.75 1835.13,1013.35 1835.13,1013.35 C1835.13,1013.35 1837.01,1013.82 1837.01,1013.82 C1837.01,1013.82 1831.03,1011.22 1831.03,1011.22 C1831.28,1011.01 1832.29,1011.27 1832.83,1011.43 C1833.20,1011.56 1834.95,1014.92 1835.37,1015.00 C1837.56,1015.37 1838.13,1015.51 1840.21,1016.29 C1841.98,1016.96 1844.11,1017.53 1845.77,1017.80 C1846.12,1017.86 1846.75,1017.95 1847.65,1018.06" fill="none" stroke="rgb(255, 255, 255)" stroke-width="12.50" stroke-opacity="1.00" stroke-linejoin="round"/>
<path d="M2184.93,1033.61 C2184.93,1033.61 2180.02,1031.42 2180.02,1031.42 C2179.62,1033.69 2181.10,1037.71 2184.07,1041.68 C2187.35,1045.99 2197.86,1056.86 2203.30,1061.50 C2213.20,1069.91 2235.47,1084.53 2249.79,1092.16 C2257.97,1096.31 2270.06,1101.84 2277.42,1104.97 C2291.86,1110.83 2319.07,1119.17 2334.63,1122.36 C2345.32,1124.36 2356.79,1125.98 2365.75,1126.69 C2373.58,1127.15 2390.49,1127.79 2395.46,1127.57 C2401.87,1127.17 2416.80,1125.82 2424.47,1124.67 C2432.07,1123.41 2447.22,1120.00 2454.72,1117.83 C2462.22,1115.54 2476.93,1110.04 2484.08,1106.82 C2491.99,1103.10 2504.85,1095.95 2511.21,1091.71 C2517.60,1087.42 2529.31,1078.00 2534.54,1072.93 C2539.79,1067.81 2548.91,1056.91 2552.73,1051.16 C2556.53,1045.40 2562.63,1033.34 2564.90,1027.07 C2567.14,1020.80 2570.05,1007.92 2570.68,1001.42 C2571.30,994.87 2570.87,981.88 2569.74,975.31 C2568.63,968.94 2565.02,956.42 2562.57,950.26 C2559.19,941.96 2555.41,934.43 2549.41,924.12 C2544.75,916.37 2536.84,906.65 2532.56,902.62 C2530.62,900.80 2528.09,899.05 2527.17,898.48" fill="none" stroke="rgb(0, 0, 0)" stroke-width="15.00" stroke-opacity="1.00" stroke-linejoin="round"/>
<path d="M2531.82,1083.77 C2530.60,1083.33 2527.19,1082.09 2526.59,1081.90 C2525.22,1081.51 2523.24,1081.44 2522.69,1081.91 C2521.98,1082.58 2521.53,1085.41 2521.64,1087.78 C2521.79,1089.87 2524.34,1095.40 2526.68,1098.94 C2530.30,1104.33 2541.72,1114.96 2547.31,1118.76 C2553.48,1122.88 2564.69,1128.77 2571.14,1131.33 C2578.83,1134.36 2594.11,1138.77 2599.86,1140.05 C2606.99,1141.62 2620.10,1143.63 2629.90,1144.60 C2638.65,1145.29 2653.40,1145.48 2659.96,1145.20 C2664.61,1144.99 2681.38,1143.30 2688.07,1142.03 C2693.94,1140.90 2713.30,1135.88 2717.01,1134.69 C2720.93,1133.43 2736.87,1126.81 2740.57,1125.01 C2747.70,1121.48 2759.25,1114.76 2763.69,1111.76 C2770.20,1107.28 2780.02,1099.49 2784.43,1095.40 C2789.60,1090.57 2798.42,1080.93 2802.07,1076.24 C2806.35,1070.71 2813.32,1059.98 2816.03,1054.89 C2819.18,1048.94 2823.97,1037.52 2825.65,1032.18 C2827.74,1025.51 2830.79,1010.67 2831.28,1005.13 C2831.63,1000.99 2831.82,979.43 2831.00,972.70 C2830.09,965.41 2828.15,956.94 2825.54,949.71" fill="none" stroke="rgb(0, 0, 0)" stroke-width="15.00" stroke-opacity="1.00" stroke-linejoin="round"/>
<path d="M2776.65,1100.21 C2775.87,1101.08 2776.11,1105.09 2777.13,1108.15 C2779.36,1114.69 2784.48,1124.40 2788.08,1129.27 C2791.93,1134.45 2801.92,1144.87 2807.48,1149.51 C2818.06,1158.29 2833.57,1165.28 2835.85,1165.90" fill="none" stroke="rgb(0, 0, 0)" stroke-width="15.00" stroke-opacity="1.00" stroke-linejoin="round"/>
<path d="M3066.40,1470.96 C3067.46,1472.83 3071.30,1476.57 3075.12,1478.96 C3079.33,1481.58 3087.43,1486.25 3088.74,1486.94 C3094.01,1489.65 3109.11,1493.44 3114.33,1494.08 C3122.23,1495.03 3134.51,1495.02 3142.93,1493.63 C3149.03,1492.60 3162.51,1488.79 3169.99,1485.61 C3176.54,1482.80 3189.68,1475.23 3194.97,1471.40 C3200.69,1467.24 3212.24,1456.96 3218.20,1450.59 C3223.39,1444.91 3232.09,1434.00 3237.40,1426.32 C3241.69,1419.82 3248.27,1409.08 3252.86,1400.55 C3261.02,1384.63 3271.35,1359.48 3276.44,1344.92 C3279.97,1334.19 3289.21,1299.26 3291.59,1286.70 C3292.85,1279.59 3295.12,1265.04 3296.10,1257.54 C3297.81,1241.94 3299.00,1209.69 3299.08,1193.74 C3298.93,1172.60 3296.91,1150.57 3295.11,1135.62 C3293.38,1122.31 3287.10,1088.78 3284.45,1077.69 C3279.87,1059.94 3271.24,1032.04 3267.43,1021.32 C3262.13,1007.34 3250.44,979.91 3244.03,966.40 C3238.92,956.21 3224.73,930.67 3215.02,915.18 C3206.98,902.95 3188.03,877.74 3177.52,865.64 C3170.47,857.83 3161.91,849.17 3156.52,843.97 C3149.10,837.12 3140.14,829.60 3134.52,825.12 C3126.72,819.21 3117.59,813.04 3109.49,807.99 C3102.87,804.03 3089.65,797.21 3083.49,794.22 C3077.51,791.34 3066.09,786.77 3058.07,784.68 C3051.55,783.05 3036.20,779.58 3028.74,778.15 C3020.69,776.71 3007.99,775.46 2997.04,774.82 C2992.15,774.58 2970.98,774.75 2967.71,774.93 C2959.20,775.40 2947.70,776.97 2937.95,778.90 C2929.09,780.81 2923.06,783.52 2918.38,786.10" fill="none" stroke="rgb(0, 0, 0)" stroke-width="15.00" stroke-opacity="1.00" stroke-linejoin="round"/>
<path d="M1722.86,1293.96 C1722.86,1293.96 1728.05,1297.16 1728.05,1297.16 C1726.50,1297.29 1719.27,1295.74 1717.66,1295.27 C1713.17,1293.93 1699.60,1285.88 1695.08,1282.64 C1690.32,1279.21 1678.81,1269.39 1673.42,1264.22 C1666.74,1257.62 1660.00,1250.12 1653.50,1242.02 C1644.08,1229.98 1631.45,1209.10 1623.51,1193.81 C1620.11,1186.92 1614.16,1173.16 1611.36,1166.10 C1608.98,1159.82 1604.62,1145.78 1601.93,1135.41 C1599.42,1124.82 1592.40,1090.55 1590.88,1077.31 C1588.70,1053.73 1587.93,1030.85 1588.20,1016.94 C1588.58,1006.54 1589.14,998.82 1590.10,990.02 C1591.09,982.11 1599.03,941.71 1601.85,930.35 C1603.88,922.83 1608.32,907.88 1609.95,902.91 C1613.92,891.37 1628.95,857.49 1634.72,847.14 C1637.89,841.47 1646.22,828.86 1650.67,822.64 C1656.01,815.42 1676.67,790.47 1690.16,775.79 C1696.94,768.79 1706.29,759.89 1711.65,755.09 C1722.55,745.66 1747.07,727.34 1756.99,720.77 C1764.17,716.19 1775.57,709.96 1782.48,706.47 C1792.80,701.56 1822.72,689.21 1840.10,683.06 C1847.06,680.79 1858.31,677.18 1867.93,674.62 C1883.38,670.89 1916.16,665.59 1927.08,664.65 C1932.00,664.26 1950.03,663.84 1957.98,663.91 C1974.93,664.41 2002.24,667.19 2021.31,669.93 C2039.10,672.80 2062.56,677.85 2080.86,682.61 C2099.28,687.77 2120.10,694.79 2141.30,703.30 C2151.75,707.77 2157.23,710.68 2162.94,715.13" fill="none" stroke="rgb(0, 0, 0)" stroke-width="15.00" stroke-opacity="1.00" stroke-linejoin="round"/>
<path d="M1995.78,657.74 C1995.78,657.74 1989.83,658.36 1989.83,658.36 C1989.39,656.27 1988.89,653.55 1988.84,652.49 C1988.76,650.54 1991.34,645.36 1993.66,641.16 C1998.24,633.07 2003.86,624.81 2010.58,615.93 C2023.15,600.23 2039.43,582.15 2050.33,570.77 C2060.33,560.93 2080.06,542.55 2094.10,530.57 C2106.40,520.50 2130.45,502.15 2142.68,493.39 C2155.19,484.75 2180.06,468.69 2192.97,460.80 C2206.02,453.13 2232.85,438.43 2247.23,431.12 C2262.22,423.96 2291.87,410.99 2306.91,404.59 C2323.74,397.70 2347.62,389.34 2361.01,385.10 C2379.90,379.33 2404.83,372.90 2419.19,369.65 C2433.65,366.79 2462.36,362.24 2476.71,360.56 C2491.79,359.14 2521.46,357.90 2539.61,358.29 C2552.65,358.73 2583.16,361.81 2600.46,364.83 C2605.75,365.83 2622.36,369.66 2629.52,371.54 C2634.61,372.95 2650.47,378.11 2657.27,380.57 C2661.47,382.13 2676.99,388.85 2683.35,391.86 C2687.52,393.89 2706.36,404.62 2710.19,407.12 C2715.19,410.38 2729.92,421.38 2734.28,425.16 C2740.48,430.64 2750.07,440.17 2754.72,445.44 C2758.78,450.14 2767.68,461.84 2772.08,469.01 C2776.54,476.29 2782.95,489.54 2785.70,496.62 C2788.15,503.00 2792.42,518.64 2793.55,525.23 C2794.77,532.37 2796.06,546.24 2796.07,554.10 C2796.07,561.90 2794.83,575.39 2793.66,582.43 C2792.60,588.74 2788.71,603.67 2786.55,609.72 C2784.17,616.37 2778.71,628.82 2774.99,635.71 C2771.25,642.59 2763.63,654.15 2759.25,660.05 C2755.25,665.36 2744.44,677.59 2739.47,682.42 C2733.90,687.75 2724.51,695.90 2716.96,701.75 C2709.11,707.54 2702.08,712.29 2693.46,717.66 C2681.61,724.65 2652.96,738.70 2640.31,744.02 C2625.44,749.74 2591.67,762.27 2579.48,766.19 C2572.08,768.40 2557.96,772.31 2550.27,774.27 C2542.64,776.13 2526.37,779.54 2521.26,779.68 C2520.96,779.68 2517.91,779.70 2516.72,779.71" fill="none" stroke="rgb(0, 0, 0)" stroke-width="15.00" stroke-opacity="1.00" stroke-linejoin="round"/>
<path d="M2896.99,793.96 C2898.18,790.14 2900.86,786.15 2903.47,783.69 C2909.63,777.96 2919.09,770.57 2926.26,765.75 C2940.51,756.67 2968.25,739.28 2977.08,734.72 C2976.76,736.39 2967.58,745.09 2962.87,749.51 C2949.82,761.19 2923.94,784.30 2911.10,795.72 C2903.33,802.78 2899.25,806.98 2894.83,812.16 C2897.66,812.05 2913.50,802.84 2919.04,798.69 C2929.01,791.11 2955.30,766.56 2964.41,758.51 C2970.46,753.42 2984.92,741.46 2987.93,739.28 C2992.31,736.12 3000.51,732.00 3001.81,731.94 C3002.60,733.02 3000.20,737.05 2996.75,741.31 C2989.13,750.38 2964.93,775.63 2954.20,786.21 C2940.02,799.91 2922.43,818.86 2920.49,820.73 C2923.58,819.57 2928.28,815.53 2930.96,813.21 C2937.93,806.90 2990.24,754.89 3006.39,738.80 C3005.59,740.26 2969.47,779.23 2967.13,781.98 C2966.66,782.53 2918.25,830.98 2914.68,833.89 C2916.54,829.53 2918.95,825.11 2921.01,822.58 C2926.18,816.58 2937.09,803.92 2939.90,799.59 C2941.12,797.70 2943.52,793.43 2944.01,792.57" fill="none" stroke="rgb(255, 255, 255)" stroke-width="12.50" stroke-opacity="1.00" stroke-linejoin="round"/>
<path d="M2802.23,545.48 C2802.23,545.48 2795.52,543.05 2795.52,543.05 C2797.35,542.18 2803.26,542.30 2807.37,542.73 C2809.97,543.00 2830.30,546.09 2838.55,547.98 C2845.91,549.77 2863.49,554.65 2866.65,555.65 C2874.06,558.03 2886.82,563.43 2893.48,566.60 C2901.92,570.71 2912.15,576.80 2920.19,582.29 C2928.55,588.15 2934.76,593.06 2940.35,598.39 C2946.47,604.27 2954.29,613.10 2957.82,617.87 C2961.93,623.45 2968.68,634.56 2971.36,639.96 C2974.45,646.22 2979.38,658.61 2981.22,664.53 C2983.53,672.16 2986.67,685.56 2987.62,691.12 C2989.08,700.49 2990.42,714.43 2990.61,718.93 C2990.90,727.36 2990.45,741.11 2989.90,746.59 C2989.14,754.00 2986.74,766.70 2985.15,772.24 C2983.14,779.17 2977.83,791.63 2973.64,798.12 C2971.64,801.19 2967.38,806.47 2964.78,808.96 C2959.32,814.14 2949.64,820.29 2941.19,824.44 C2937.47,826.25 2934.56,827.29 2929.86,828.34 C2924.56,829.50 2919.80,830.28 2917.82,830.06 C2916.88,829.94 2914.88,829.54 2913.50,829.22" fill="none" stroke="rgb(0, 0, 0)" stroke-width="15.00" stroke-opacity="1.00" stroke-linejoin="round"/>
<path d="M1922.30,1282.72 C1923.88,1282.84 1927.20,1292.63 1930.25,1302.98 C1932.40,1310.50 1936.94,1327.03 1938.09,1333.11 C1939.32,1340.13 1941.20,1353.37 1942.11,1360.15 C1944.25,1381.21 1944.83,1394.89 1944.35,1419.21 C1943.77,1435.44 1941.73,1457.77 1938.64,1478.84 C1937.13,1490.31 1930.30,1520.15 1930.30,1522.11 C1930.32,1523.93 1932.29,1528.84 1933.38,1529.79 C1935.01,1531.16 1942.90,1534.48 1945.62,1535.18 C1948.84,1535.98 1956.34,1536.40 1959.26,1535.92 C1960.19,1535.76 1969.30,1533.62 1972.72,1532.79 C1977.34,1531.58 1983.08,1528.93 1987.11,1525.88 C1990.50,1523.24 1992.59,1520.42 1994.41,1516.38 C1997.11,1510.28 2001.55,1494.94 2003.02,1487.95 C2004.55,1480.32 2007.22,1464.88 2007.78,1459.65 C2008.50,1452.53 2008.74,1412.63 2008.68,1397.03 C2008.53,1390.85 2004.30,1351.05 2002.50,1338.97 C2001.04,1330.66 1997.72,1314.77 1996.11,1308.02 C1993.54,1297.83 1988.82,1287.02 1986.63,1281.62 C1985.01,1277.70 1982.70,1273.73 1979.98,1270.42 C1977.49,1267.43 1975.96,1266.12 1973.10,1264.95 C1969.29,1263.42 1964.62,1262.21 1961.70,1262.04 C1958.82,1261.91 1953.75,1263.00 1949.94,1264.13 C1946.09,1265.31 1941.73,1267.19 1938.78,1269.59 C1935.03,1272.71 1931.79,1276.93 1930.04,1281.04 C1928.19,1285.57 1927.31,1290.99 1928.01,1294.23 C1929.02,1298.72 1935.75,1316.20 1938.46,1323.06 C1939.39,1325.30 1940.70,1328.41 1941.46,1330.11 C1942.00,1331.31 1942.29,1332.01 1942.52,1332.62" fill="none" stroke="rgb(0, 0, 0)" stroke-width="15.00" stroke-opacity="1.00" stroke-linejoin="round"/>
<path d="M2790.60,1255.95 C2790.91,1255.21 2789.84,1254.65 2786.93,1254.17 C2784.09,1253.72 2780.09,1254.97 2777.07,1257.31 C2774.80,1259.12 2771.47,1262.88 2769.57,1266.23 C2766.97,1270.90 2760.77,1283.92 2756.81,1293.42 C2753.97,1300.59 2746.82,1318.83 2745.46,1322.83 C2743.08,1329.85 2739.50,1345.04 2737.84,1352.91 C2736.34,1360.90 2733.48,1376.33 2733.03,1383.37 C2732.45,1394.89 2732.16,1406.22 2732.74,1413.54 C2733.03,1417.10 2735.52,1435.62 2736.85,1443.38 C2738.20,1450.80 2741.44,1463.32 2744.27,1469.58 C2746.55,1474.44 2748.39,1477.87 2750.25,1480.55 C2751.80,1482.72 2754.87,1485.15 2759.05,1487.80 C2762.63,1489.97 2768.02,1492.46 2772.21,1493.68 C2775.68,1494.69 2782.61,1496.28 2784.85,1496.62 C2790.71,1497.46 2805.28,1496.24 2811.33,1494.41 C2814.95,1493.28 2829.25,1486.13 2834.56,1482.87 C2838.06,1480.68 2840.63,1478.24 2842.26,1475.62 C2843.53,1473.51 2844.75,1468.78 2844.69,1466.45 C2844.49,1460.26 2841.72,1450.45 2837.94,1439.91 C2835.13,1432.38 2828.77,1414.96 2827.40,1409.99 C2825.81,1404.08 2824.42,1391.83 2823.75,1381.17 C2823.52,1376.54 2823.60,1356.76 2824.12,1351.43 C2824.71,1345.60 2827.55,1330.16 2829.09,1324.06 C2831.87,1313.18 2841.12,1290.54 2841.54,1286.27 C2841.79,1283.19 2840.21,1279.13 2838.11,1274.98 C2836.79,1272.49 2833.71,1270.05 2828.30,1266.48 C2824.52,1264.01 2820.92,1262.05 2818.16,1261.28 C2815.23,1260.47 2808.19,1257.61 2804.98,1257.01 C2802.30,1256.53 2793.14,1256.38 2791.59,1256.55 C2789.14,1256.84 2784.39,1259.89 2783.12,1260.82 C2781.09,1262.34 2778.28,1266.04 2775.22,1270.95 C2773.34,1273.98 2772.36,1276.57 2771.98,1277.84" fill="none" stroke="rgb(0, 0, 0)" stroke-width="15.00" stroke-opacity="1.00" stroke-linejoin="round"/>
<path d="M2330.36,1482.20 C2330.36,1482.20 2329.45,1485.75 2329.45,1485.75 C2326.37,1485.68 2324.94,1485.48 2323.65,1484.79 C2320.83,1483.24 2317.10,1479.51 2314.39,1475.81 C2311.75,1472.17 2308.20,1466.41 2306.82,1463.24 C2304.55,1457.96 2300.29,1443.73 2299.00,1435.79 C2297.64,1427.26 2297.12,1413.30 2297.73,1407.39 C2298.37,1401.53 2301.76,1387.63 2303.72,1381.41 C2306.29,1373.31 2314.63,1356.29 2316.36,1353.15 C2318.14,1349.96 2329.31,1334.91 2332.75,1331.06 C2336.50,1326.88 2346.14,1317.83 2351.83,1313.61 C2358.16,1308.95 2372.12,1301.69 2378.59,1299.78 C2385.21,1297.85 2398.27,1295.99 2404.42,1295.75 C2410.74,1295.53 2424.18,1297.86 2429.68,1299.33 C2435.36,1300.88 2445.83,1306.34 2452.12,1310.68 C2457.71,1314.61 2468.27,1323.58 2472.45,1328.20 C2476.79,1333.05 2485.30,1345.17 2487.86,1350.17 C2490.60,1355.61 2495.55,1370.69 2496.95,1376.37 C2498.93,1384.40 2500.58,1397.12 2500.66,1403.75 C2500.72,1411.36 2499.41,1424.04 2497.32,1431.58 C2495.58,1437.73 2490.16,1452.15 2487.28,1458.02 C2484.42,1463.80 2477.34,1474.47 2473.56,1478.85 C2469.04,1484.05 2459.14,1493.32 2451.33,1499.22 C2443.01,1505.37 2432.66,1511.58 2426.26,1514.09 C2422.16,1515.67 2417.87,1516.68 2415.75,1516.72" fill="none" stroke="rgb(0, 0, 0)" stroke-width="15.00" stroke-opacity="1.00" stroke-linejoin="round"/>
<path d="M2344.31,1490.07 C2344.31,1490.07 2343.49,1492.45 2343.49,1492.45 C2342.20,1490.95 2341.03,1485.30 2340.62,1482.20 C2339.74,1475.45 2340.02,1460.28 2341.34,1451.87 C2342.81,1442.71 2345.57,1432.87 2348.55,1427.42 C2350.07,1424.67 2354.13,1420.08 2356.11,1418.90 C2358.16,1417.74 2362.14,1417.78 2363.99,1418.95 C2365.79,1420.15 2368.84,1424.52 2370.01,1427.53 C2371.15,1430.55 2372.58,1437.70 2372.86,1441.69 C2373.10,1445.54 2372.76,1453.62 2372.19,1457.47 C2371.58,1461.39 2369.79,1467.91 2368.44,1471.34 C2367.29,1474.18 2363.52,1480.23 2361.45,1482.39 C2360.59,1483.29 2358.82,1484.65 2357.70,1485.42" fill="none" stroke="rgb(0, 0, 0)" stroke-width="15.00" stroke-opacity="1.00" stroke-linejoin="round"/>
<path d="M2387.32,1487.64 C2387.32,1487.64 2384.07,1489.94 2384.07,1489.94 C2384.08,1484.11 2386.90,1471.55 2389.26,1465.67 C2390.62,1462.30 2394.30,1455.10 2396.26,1452.19 C2398.15,1449.42 2403.64,1443.21 2404.95,1442.00 C2407.38,1439.77 2412.92,1437.03 2414.50,1436.57 C2416.72,1435.95 2421.13,1436.27 2422.98,1437.16 C2424.79,1438.06 2427.91,1441.30 2429.06,1443.52 C2430.24,1445.89 2431.48,1451.83 2431.47,1455.24 C2431.41,1458.96 2430.14,1464.98 2428.58,1469.67 C2426.93,1474.50 2419.27,1487.08 2416.55,1490.60 C2414.17,1493.65 2409.81,1497.90 2407.08,1499.77 C2404.67,1501.40 2395.97,1505.81 2395.51,1506.09 C2395.09,1506.34 2394.17,1506.94 2392.76,1507.89" fill="none" stroke="rgb(0, 0, 0)" stroke-width="15.00" stroke-opacity="1.00" stroke-linejoin="round"/>
<path d="M2426.60,1662.96 C2424.90,1665.29 2408.68,1674.79 2405.73,1675.93 C2401.74,1677.44 2387.86,1678.46 2380.96,1677.34 C2377.61,1676.78 2371.09,1674.94 2369.09,1674.19 C2364.48,1672.43 2353.56,1664.80 2347.92,1660.79 C2342.19,1656.72 2325.76,1643.33 2323.48,1641.74 C2320.95,1640.00 2305.45,1631.72 2301.80,1630.38 C2298.33,1629.14 2291.80,1627.92 2288.35,1627.93 C2281.03,1628.12 2267.53,1628.37 2263.62,1629.34 C2260.70,1630.10 2257.24,1631.70 2254.07,1633.80 C2249.93,1636.56 2244.76,1640.66 2242.12,1643.32 C2237.80,1647.72 2229.68,1658.87 2225.16,1666.40 C2221.76,1672.11 2216.77,1684.28 2215.48,1688.53 C2214.41,1692.10 2209.34,1712.30 2208.12,1718.39 C2206.55,1726.76 2204.86,1740.23 2204.70,1746.17 C2204.58,1751.04 2205.37,1766.74 2206.37,1772.64 C2207.51,1779.31 2210.04,1788.45 2213.30,1796.24 C2216.98,1804.75 2223.22,1816.50 2227.35,1822.49 C2231.93,1829.05 2242.47,1840.11 2247.69,1844.50 C2251.63,1847.80 2265.39,1857.55 2271.00,1860.70 C2277.16,1864.14 2287.36,1868.69 2296.06,1871.75 C2305.71,1875.02 2321.63,1879.72 2326.61,1880.89 C2333.37,1882.48 2348.08,1884.95 2355.19,1885.57 C2359.26,1885.92 2377.56,1886.61 2385.37,1886.78 C2394.85,1886.84 2407.54,1885.76 2414.23,1884.73 C2421.22,1883.65 2436.66,1879.99 2443.97,1877.80 C2451.31,1875.51 2463.81,1870.35 2470.16,1867.66 C2477.04,1864.59 2490.05,1858.28 2496.23,1855.02 C2502.22,1851.65 2514.01,1844.47 2521.08,1839.81 C2530.75,1833.20 2537.83,1827.96 2542.95,1822.96 C2547.56,1818.41 2552.89,1811.24 2560.06,1800.89 C2564.72,1794.06 2567.47,1788.96 2572.11,1779.73 C2575.90,1771.99 2580.52,1761.09 2583.11,1753.66 C2585.16,1747.40 2589.37,1732.46 2590.68,1726.85 C2593.08,1715.86 2594.70,1707.31 2595.41,1699.81 C2596.14,1691.35 2596.17,1680.31 2595.72,1673.57 C2595.27,1666.88 2593.17,1652.64 2591.91,1647.42 C2590.40,1641.21 2585.73,1629.64 2582.72,1623.98 C2580.88,1620.54 2576.87,1614.48 2574.57,1611.69 C2569.95,1606.11 2559.14,1597.58 2553.10,1594.43 C2550.40,1593.04 2543.52,1590.15 2540.42,1589.22 C2536.91,1588.20 2531.56,1587.43 2527.98,1587.44 C2521.99,1587.50 2509.16,1590.56 2503.94,1593.01 C2500.35,1594.72 2484.92,1604.16 2480.24,1608.12 C2469.85,1616.98 2432.21,1660.62 2431.04,1661.85 C2429.11,1663.87 2423.36,1668.01 2420.67,1669.76 C2418.87,1670.92 2410.30,1676.13 2406.90,1677.74 C2405.37,1678.45 2404.15,1678.84 2403.66,1678.84 C2403.50,1678.83 2403.34,1678.82 2403.17,1678.80" fill="none" stroke="rgb(0, 0, 0)" stroke-width="15.00" stroke-opacity="1.00" stroke-linejoin="round"/>
<path d="M2266.13,1855.17 C2266.13,1855.17 2262.97,1861.53 2262.97,1861.53 C2262.49,1861.16 2265.91,1848.74 2269.19,1838.06 C2279.52,1806.07 2300.38,1746.44 2310.80,1717.20 C2313.88,1708.95 2319.66,1693.48 2322.37,1686.27 C2325.43,1677.85 2332.93,1653.82 2335.48,1646.39 C2335.70,1645.78 2335.92,1645.17 2336.13,1644.56" fill="none" stroke="rgb(0, 0, 0)" stroke-width="15.00" stroke-opacity="1.00" stroke-linejoin="round"/>
<path d="M2456.97,1637.18 C2456.97,1637.18 2453.60,1632.01 2453.60,1632.01 C2455.36,1637.65 2459.65,1651.25 2462.18,1659.22 C2471.25,1687.69 2490.92,1747.38 2501.52,1778.59 C2508.22,1796.98 2518.08,1822.89 2521.56,1832.03 C2522.20,1833.69 2522.70,1835.37 2523.01,1837.00 C2523.09,1837.41 2523.17,1838.02 2523.27,1838.84" fill="none" stroke="rgb(0, 0, 0)" stroke-width="15.00" stroke-opacity="1.00" stroke-linejoin="round"/>
<path d="M2301.18,2051.30 C2301.18,2051.30 2297.03,2054.33 2297.03,2054.33 C2297.12,2050.93 2301.83,2037.53 2304.66,2031.12 C2307.66,2024.60 2313.42,2013.89 2317.33,2008.52 C2321.60,2002.71 2330.23,1994.97 2335.14,1991.74 C2340.39,1988.29 2351.36,1983.14 2357.12,1982.32 C2360.24,1981.90 2366.09,1982.06 2369.02,1982.84 C2372.25,1983.74 2378.35,1987.76 2380.64,1989.76 C2383.14,1992.01 2394.54,2006.43 2399.33,2012.54 C2404.21,2018.62 2412.45,2026.52 2416.91,2030.33 C2422.79,2035.33 2432.17,2041.48 2440.34,2044.81 C2443.80,2046.19 2448.29,2047.08 2452.55,2047.18 C2456.25,2047.22 2463.14,2045.85 2466.42,2044.40 C2469.71,2042.91 2475.17,2039.16 2477.10,2037.53 C2481.91,2033.40 2490.53,2022.60 2494.38,2015.58 C2498.20,2008.55 2501.05,1998.60 2502.55,1990.33 C2503.23,1986.47 2503.78,1979.75 2503.78,1976.14 C2503.74,1972.35 2503.24,1970.12 2502.49,1967.40" fill="none" stroke="rgb(0, 0, 0)" stroke-width="15.00" stroke-opacity="1.00" stroke-linejoin="round"/>
<path d="M2816.27,1843.10 C2816.27,1843.10 2815.80,1825.32 2815.80,1825.32 C2816.06,1832.21 2816.81,1849.49 2817.45,1854.84 C2817.94,1858.93 2820.57,1874.77 2822.26,1881.61 C2824.10,1888.56 2827.85,1902.31 2829.42,1906.22 C2833.14,1915.11 2837.20,1922.61 2840.41,1926.14 C2841.23,1927.02 2843.27,1928.66 2844.47,1929.33 C2845.69,1930.00 2848.19,1930.40 2849.54,1930.19 C2850.72,1929.97 2852.96,1928.99 2853.81,1928.31 C2856.16,1926.29 2859.53,1920.70 2860.45,1917.46 C2862.56,1909.96 2863.00,1902.52 2862.73,1890.54 C2862.68,1888.83 2862.60,1885.93 2862.57,1884.74 C2865.00,1890.28 2874.03,1902.70 2879.90,1908.49 C2882.51,1911.04 2886.69,1914.44 2889.93,1916.12 C2893.43,1917.90 2898.75,1919.07 2901.51,1918.69 C2904.43,1918.21 2909.29,1914.95 2912.19,1911.66 C2915.01,1908.39 2917.77,1903.03 2918.76,1899.87 C2920.52,1894.11 2922.76,1878.14 2922.41,1871.64 C2922.22,1868.24 2919.97,1849.31 2918.42,1841.89 C2916.95,1835.09 2912.66,1819.58 2911.11,1814.78 C2908.39,1806.80 2903.58,1794.66 2900.60,1787.72 C2896.75,1779.18 2890.31,1767.63 2888.67,1765.86" fill="none" stroke="rgb(0, 0, 0)" stroke-width="15.00" stroke-opacity="1.00" stroke-linejoin="round"/>
<path d="M1797.53,1789.98 C1797.53,1789.98 1797.14,1790.09 1797.14,1790.09 C1796.05,1792.64 1795.27,1799.94 1795.07,1801.71 C1793.34,1818.77 1790.76,1846.45 1790.02,1864.06 C1789.79,1873.64 1789.97,1885.73 1790.26,1892.51 C1790.61,1898.13 1792.63,1918.07 1793.31,1922.44 C1795.94,1939.03 1799.28,1949.25 1801.02,1952.82 C1801.78,1954.39 1802.86,1955.26 1805.23,1956.49 C1807.92,1955.19 1809.39,1954.19 1810.35,1952.76 C1813.70,1947.71 1819.03,1935.10 1820.93,1928.76 C1822.87,1922.11 1824.69,1906.09 1825.50,1898.59 C1825.85,1898.95 1830.01,1916.75 1831.94,1924.87 C1833.64,1931.45 1837.99,1944.57 1841.19,1950.74 C1843.25,1954.68 1846.97,1959.89 1849.28,1962.15 C1851.64,1964.42 1856.83,1967.45 1858.72,1967.87 C1860.56,1968.23 1864.78,1967.20 1867.15,1965.65 C1869.53,1964.06 1872.50,1960.38 1873.80,1957.40 C1876.09,1952.05 1878.41,1939.38 1878.19,1932.59 C1878.01,1927.42 1876.43,1911.69 1874.55,1901.83 C1873.15,1894.98 1871.16,1885.62 1870.58,1883.10" fill="none" stroke="rgb(0, 0, 0)" stroke-width="15.00" stroke-opacity="1.00" stroke-linejoin="round"/>
<path d="M2797.02,1941.26 C2798.53,1942.95 2799.35,1943.87 2799.48,1944.00 C2799.97,1944.48 2794.85,1937.61 2793.12,1934.76 C2790.22,1929.97 2785.24,1919.90 2781.54,1911.35 C2777.34,1900.95 2770.64,1881.48 2770.09,1879.45" fill="none" stroke="rgb(0, 0, 0)" stroke-width="15.00" stroke-opacity="1.00" stroke-linejoin="round"/>
<path d="M2788.60,1912.29 C2788.14,1910.84 2788.35,1909.31 2789.44,1908.75 C2789.76,1908.59 2790.44,1908.44 2791.48,1908.30 C2792.36,1909.97 2792.47,1911.37 2791.47,1913.21 C2789.76,1916.38 2763.43,1949.41 2752.17,1963.45 C2741.91,1975.90 2723.86,1997.14 2713.95,2007.76 C2699.47,2022.67 2676.27,2044.67 2667.38,2052.51 C2655.24,2062.85 2628.00,2083.76 2618.66,2090.31 C2612.86,2094.19 2602.94,2100.73 2593.18,2106.40 C2582.82,2112.05 2549.25,2128.70 2537.37,2133.38 C2523.94,2138.67 2494.62,2147.53 2483.80,2150.28 C2471.55,2153.15 2438.83,2158.20 2423.95,2160.08 C2407.90,2161.91 2385.02,2163.11 2365.37,2163.41 C2347.97,2163.46 2322.03,2161.95 2303.08,2160.02 C2287.20,2158.12 2258.89,2153.64 2244.86,2150.98 C2231.05,2147.97 2203.68,2141.07 2190.10,2137.15 C2173.38,2131.80 2149.47,2122.88 2135.98,2117.33 C2122.26,2111.29 2095.27,2098.61 2083.29,2092.19 C2073.61,2086.71 2042.06,2067.08 2029.78,2058.28 C2017.80,2049.29 1993.94,2029.38 1982.44,2019.17 C1968.40,2006.14 1951.65,1989.43 1938.20,1974.98 C1930.68,1966.64 1925.60,1960.30 1923.93,1958.20" fill="none" stroke="rgb(0, 0, 0)" stroke-width="15.00" stroke-opacity="1.00" stroke-linejoin="round"/>
<path d="M2796.55,1900.42 C2796.55,1900.42 2800.00,1905.13 2800.00,1905.13 C2800.00,1905.13 2796.54,1893.66 2796.54,1893.66 C2796.54,1893.66 2806.22,1911.88 2806.22,1911.88 C2806.22,1911.88 2795.83,1893.12 2795.83,1893.12 C2795.70,1896.72 2801.64,1906.07 2804.01,1909.92 C2804.32,1910.39 2805.05,1911.51 2804.96,1911.47 C2804.96,1911.47 2796.73,1898.24 2796.73,1898.24 C2796.73,1898.24 2803.95,1914.46 2803.95,1914.46 C2803.95,1914.46 2796.46,1902.19 2796.46,1902.19 C2797.63,1907.55 2800.98,1910.74 2801.42,1911.02 C2801.42,1911.02 2795.97,1902.72 2795.97,1902.72 C2795.97,1902.72 2799.99,1910.39 2799.99,1910.39 C2799.99,1910.39 2798.48,1904.20 2798.48,1904.20 C2798.48,1904.20 2800.89,1909.97 2800.89,1909.97 C2800.89,1909.97 2800.27,1908.96 2800.27,1908.96 C2800.27,1908.96 2800.74,1910.66 2800.74,1910.66 C2800.74,1910.66 2799.67,1911.85 2799.67,1911.85 C2800.56,1911.15 2800.78,1910.49 2800.35,1909.24 C2800.21,1908.82 2800.06,1908.34 2799.89,1907.80" fill="none" stroke="rgb(255, 255, 255)" stroke-width="12.50" stroke-opacity="1.00" stroke-linejoin="round"/>
<path d="M2150.41,1619.89 C2150.41,1619.89 2153.28,1617.46 2153.28,1617.46 C2153.60,1618.73 2153.52,1619.84 2152.71,1621.53 C2151.03,1625.02 2142.33,1640.06 2138.44,1646.43 C2132.97,1654.99 2125.96,1664.99 2121.42,1670.71 C2117.77,1675.28 2106.76,1687.27 2103.39,1690.53 C2097.77,1695.95 2086.71,1705.06 2080.45,1709.40 C2075.59,1712.75 2063.76,1719.62 2057.39,1722.59 C2052.01,1725.08 2035.25,1731.08 2030.15,1732.52 C2024.47,1734.11 2007.41,1737.47 2001.38,1737.95 C1996.90,1738.29 1975.02,1738.14 1971.48,1737.58 C1963.77,1736.31 1952.73,1732.87 1945.31,1729.25 C1941.10,1727.15 1934.83,1722.35 1933.19,1720.49 C1932.93,1720.18 1932.58,1719.68 1932.14,1718.97" fill="none" stroke="rgb(0, 0, 0)" stroke-width="15.00" stroke-opacity="1.00" stroke-linejoin="round"/>
<path d="M2087.45,1170.44 C2090.30,1171.02 2094.42,1173.22 2097.60,1175.84 C2102.47,1179.93 2112.27,1189.52 2118.20,1196.09 C2123.23,1201.82 2130.68,1210.85 2136.52,1218.55 C2140.75,1224.38 2149.14,1236.79 2153.29,1243.31 C2157.47,1250.10 2165.17,1263.43 2168.65,1270.50 C2171.87,1277.26 2177.65,1290.03 2180.04,1296.63 C2182.23,1302.82 2186.74,1318.09 2187.85,1323.43 C2188.88,1328.45 2190.73,1345.40 2190.93,1349.79 C2191.57,1364.78 2189.69,1380.90 2188.36,1387.94" fill="none" stroke="rgb(0, 0, 0)" stroke-width="15.00" stroke-opacity="1.00" stroke-linejoin="round"/>
<path d="M2740.21,1620.57 C2743.20,1622.38 2743.94,1623.70 2743.78,1624.58 C2740.86,1625.11 2739.50,1625.19 2737.58,1624.80 C2728.89,1623.22 2715.36,1620.18 2707.41,1617.32 C2700.81,1614.92 2689.47,1609.34 2683.92,1605.89 C2678.36,1602.41 2666.35,1593.30 2660.99,1588.34 C2655.36,1583.11 2645.38,1572.03 2640.86,1565.87 C2636.31,1559.65 2629.92,1548.93 2627.40,1543.55 C2624.05,1536.17 2621.35,1528.84 2618.94,1519.88 C2616.82,1511.95 2614.65,1496.56 2614.37,1489.22 C2614.21,1484.75 2614.48,1468.45 2615.18,1461.50 C2615.80,1455.50 2619.83,1432.89 2620.50,1429.93 C2621.42,1425.90 2622.93,1421.47 2624.46,1417.88" fill="none" stroke="rgb(0, 0, 0)" stroke-width="15.00" stroke-opacity="1.00" stroke-linejoin="round"/>
</g>
</svg>
