<?xml version="1.0" encoding="UTF-8" standalone="no"?>
<!DOCTYPE svg PUBLIC "-//W3C//DTD SVG 1.1//EN" "http://www.w3.org/Graphics/SVG/1.1/DTD/svg11.dtd">
<svg width="1600.00" height="1600.00" viewBox="0.00 0.00 1600.00 1600.00" xmlns="http://www.w3.org/2000/svg" xmlns:xlink="http://www.w3.org/1999/xlink">
<g stroke-linecap="round" id="Layer_2">
<path d="M461.65,862.87 C460.88,863.24 460.10,863.15 459.43,862.27 C457.15,859.28 452.43,845.75 449.29,834.87 C447.33,827.77 444.91,814.83 443.33,804.78 C442.19,796.66 440.94,780.72 440.54,773.19 C440.05,760.53 441.77,726.40 443.30,714.19 C445.93,695.53 450.29,673.43 454.52,656.83 C458.29,643.11 466.81,618.50 473.40,602.59 C478.59,590.70 489.30,569.98 498.21,554.67 C505.30,542.91 519.56,522.38 530.65,507.87 C535.09,502.23 545.36,490.03 548.92,486.13 C554.22,480.53 566.56,468.17 569.89,465.18 C573.39,462.04 586.65,451.33 594.44,445.82 C600.41,441.67 608.78,436.96 611.38,435.85" fill="none" stroke="rgb(0, 0, 0)" stroke-width="17.00" stroke-opacity="1.00" stroke-linejoin="round"/>
<path d="M609.59,433.55 C607.87,432.03 602.27,429.96 598.92,428.72 C596.25,427.71 586.07,423.50 582.54,422.00 C574.81,418.58 561.55,412.69 556.04,410.22" fill="none" stroke="rgb(0, 0, 0)" stroke-width="17.00" stroke-opacity="1.00" stroke-linejoin="round"/>
<path d="M555.94,409.83 C560.83,405.79 570.60,400.71 580.82,396.01 C586.99,393.25 599.91,388.47 608.97,385.56 C613.28,384.25 629.21,380.42 636.29,379.19 C644.81,377.83 658.81,376.51 664.15,376.22 C678.60,375.55 704.40,377.39 719.92,379.71 C728.32,381.20 742.14,384.42 746.08,385.55 C759.31,389.33 783.96,399.87 789.38,403.30" fill="none" stroke="rgb(0, 0, 0)" stroke-width="17.00" stroke-opacity="1.00" stroke-linejoin="round"/>
<path d="M789.61,404.64 C792.04,402.35 806.97,393.34 812.98,390.04 C821.77,385.42 864.01,366.52 871.00,363.95 C877.54,361.60 890.96,357.10 898.25,354.84 C904.60,353.07 919.95,349.27 925.57,348.16 C933.52,346.72 950.66,344.08 956.95,343.49 C964.11,342.83 975.45,342.48 985.77,342.48 C999.55,342.76 1027.89,345.49 1044.64,348.15 C1052.21,349.51 1066.96,352.54 1073.95,354.24 C1102.83,361.89 1126.96,373.12 1127.66,373.45" fill="none" stroke="rgb(0, 0, 0)" stroke-width="17.00" stroke-opacity="1.00" stroke-linejoin="round"/>
<path d="M1127.39,373.35 C1099.82,386.60 1058.10,406.27 1043.96,412.69 C1035.74,416.28 1020.35,422.93 1013.18,425.99 C1011.87,426.55 1009.44,427.59 1008.32,428.06 C1006.78,428.71 1004.28,429.75 1003.33,430.15" fill="none" stroke="rgb(0, 0, 0)" stroke-width="17.00" stroke-opacity="1.00" stroke-linejoin="round"/>
<path d="M1007.55,431.38 C1014.43,433.66 1020.89,436.76 1028.87,441.24 C1034.91,444.78 1047.32,452.47 1052.89,456.46 C1055.94,458.67 1069.34,469.66 1072.36,472.52 C1074.93,474.95 1085.52,485.91 1090.99,492.41 C1094.44,496.58 1103.61,508.59 1108.28,515.73 C1111.30,520.42 1118.67,533.81 1120.66,538.47 C1126.22,551.61 1130.86,568.95 1131.51,571.42" fill="none" stroke="rgb(0, 0, 0)" stroke-width="17.00" stroke-opacity="1.00" stroke-linejoin="round"/>
<path d="M1128.84,572.16 C1116.43,568.35 1091.13,560.01 1078.24,555.50 C1074.40,554.25 1066.57,551.77 1062.58,550.53 C1061.68,550.27 1060.78,550.00 1059.87,549.74" fill="none" stroke="rgb(0, 0, 0)" stroke-width="17.00" stroke-opacity="1.00" stroke-linejoin="round"/>
<path d="M1060.92,551.58 C1064.94,554.53 1077.05,566.13 1081.38,571.16 C1083.94,574.13 1096.22,589.50 1100.72,595.23 C1104.86,600.71 1114.44,614.49 1116.44,617.73 C1119.71,623.00 1125.66,634.24 1128.32,640.43 C1131.25,647.40 1133.69,657.11 1135.50,667.95 C1136.10,671.78 1136.55,675.66 1136.93,679.58" fill="none" stroke="rgb(0, 0, 0)" stroke-width="17.00" stroke-opacity="1.00" stroke-linejoin="round"/>
<path d="M1134.65,682.52 C1134.04,681.80 1128.73,677.39 1125.61,674.80 C1122.23,672.02 1113.88,665.21 1113.48,664.91 C1113.23,664.72 1112.86,664.45 1112.37,664.12" fill="none" stroke="rgb(0, 0, 0)" stroke-width="17.00" stroke-opacity="1.00" stroke-linejoin="round"/>
<path d="M1113.25,667.62 C1114.01,668.93 1115.61,675.59 1115.90,679.13 C1116.52,687.25 1116.23,700.56 1115.56,707.98 C1114.72,716.99 1109.54,751.96 1107.98,762.08" fill="none" stroke="rgb(0, 0, 0)" stroke-width="17.00" stroke-opacity="1.00" stroke-linejoin="round"/>
<path d="M521.45,873.49 C520.26,869.39 513.53,836.26 511.52,821.87 C510.32,812.48 507.01,775.40 505.58,759.01 C505.26,755.80 504.86,751.75 504.77,750.89" fill="none" stroke="rgb(0, 0, 0)" stroke-width="17.00" stroke-opacity="1.00" stroke-linejoin="round"/>
<path d="M497.92,771.81 C498.56,768.55 502.34,754.39 505.22,745.13 C509.46,732.30 520.75,705.94 527.10,692.12 C530.67,684.77 537.63,671.41 541.22,664.68 C545.02,657.98 553.26,644.31 555.07,641.68 C555.97,640.38 558.42,636.96 559.32,635.70" fill="none" stroke="rgb(0, 0, 0)" stroke-width="17.00" stroke-opacity="1.00" stroke-linejoin="round"/>
<path d="M533.99,664.73 C538.25,658.65 546.42,650.17 552.25,644.99 C559.89,638.43 568.68,631.77 576.81,626.29 C582.30,622.65 595.33,615.31 602.36,611.69 C615.83,605.04 637.69,596.65 651.65,592.93 C665.89,589.48 688.46,586.40 703.82,585.88 C712.00,585.73 722.90,586.20 731.85,587.24 C742.36,588.61 752.09,590.31 759.79,592.14 C766.38,593.84 780.47,598.07 787.54,600.44 C794.44,602.97 807.71,608.28 814.94,611.40 C831.48,618.89 848.12,628.26 855.29,632.94 C858.18,634.86 861.71,637.54 862.96,638.53" fill="none" stroke="rgb(0, 0, 0)" stroke-width="17.00" stroke-opacity="1.00" stroke-linejoin="round"/>
<path d="M822.24,566.68 C823.28,568.33 844.01,602.45 852.18,615.79 C856.71,623.33 861.52,631.68 862.53,633.47" fill="none" stroke="rgb(0, 0, 0)" stroke-width="17.00" stroke-opacity="1.00" stroke-linejoin="round"/>
<path d="M821.83,565.87 C825.46,565.15 830.12,565.32 833.54,565.82 C837.68,566.45 852.72,570.38 859.72,572.94 C867.00,575.63 881.55,582.88 886.44,585.92 C892.62,589.80 901.43,596.17 906.45,600.31 C912.08,604.98 920.37,612.99 927.49,620.59 C932.86,626.50 936.21,630.67 939.04,634.76" fill="none" stroke="rgb(0, 0, 0)" stroke-width="17.00" stroke-opacity="1.00" stroke-linejoin="round"/>
<path d="M963.89,571.51 C963.45,574.38 950.24,607.65 949.03,610.44 C946.61,615.88 941.71,626.85 940.62,629.67" fill="none" stroke="rgb(0, 0, 0)" stroke-width="17.00" stroke-opacity="1.00" stroke-linejoin="round"/>
<path d="M1007.94,630.60 C1002.23,622.72 981.93,596.53 972.57,584.24 C970.28,581.23 965.33,574.77 965.11,574.49 C964.89,574.22 964.43,573.66 963.71,572.81" fill="none" stroke="rgb(0, 0, 0)" stroke-width="17.00" stroke-opacity="1.00" stroke-linejoin="round"/>
<path d="M1037.16,569.35 C1038.43,572.38 1039.42,578.11 1039.58,580.22 C1039.79,583.11 1039.64,589.49 1039.15,592.31 C1038.04,598.48 1033.80,609.36 1031.82,612.92 C1026.70,622.00 1018.26,628.52 1015.67,630.24 C1014.27,631.17 1012.49,631.99 1010.47,632.68 C1010.07,632.81 1009.53,632.97 1008.85,633.17" fill="none" stroke="rgb(0, 0, 0)" stroke-width="17.00" stroke-opacity="1.00" stroke-linejoin="round"/>
<path d="M1035.63,617.39 C1040.17,618.48 1048.16,622.66 1055.18,627.62 C1061.44,632.18 1067.37,636.81 1074.71,643.70 C1083.98,652.53 1089.75,658.59 1092.73,663.64 C1093.97,665.82 1096.25,672.94 1096.11,675.98 C1095.91,679.00 1093.81,684.35 1091.73,685.93 C1089.63,687.43 1082.81,688.35 1079.29,687.63 C1074.78,686.65 1058.52,678.13 1055.81,676.43 C1054.09,675.36 1037.32,664.48 1030.81,660.43 C1024.04,656.40 1012.82,651.13 1006.01,648.85 C1000.44,646.99 988.06,644.59 982.96,643.26 C979.95,642.46 976.31,640.84 974.85,639.43 C973.42,637.99 971.29,633.75 970.54,631.40 C969.89,629.23 970.79,622.89 971.72,620.22 C972.02,619.41 973.72,616.95 974.44,616.41 C975.95,615.33 984.00,612.64 986.66,612.34 C988.34,612.15 992.04,612.33 993.81,612.57 C994.18,612.63 994.55,612.71 994.90,612.82" fill="none" stroke="rgb(0, 0, 0)" stroke-width="17.00" stroke-opacity="1.00" stroke-linejoin="round"/>
<path d="M565.16,686.76 C565.50,688.42 566.39,690.97 567.20,692.28 C568.24,693.91 572.80,695.80 575.67,696.12 C578.28,696.37 585.26,694.33 588.09,693.24 C593.36,691.15 597.41,689.29 599.76,687.65 C605.16,683.76 618.45,674.30 622.77,671.99 C627.21,669.64 641.27,664.12 647.60,662.58 C653.31,661.22 667.99,660.71 672.78,661.18 C673.10,661.21 686.27,662.94 694.29,664.32 C700.23,665.24 715.55,665.88 717.19,665.79 C718.47,665.72 726.21,664.38 728.93,663.32 C731.58,662.27 736.63,658.31 737.70,656.78 C738.06,656.23 739.28,653.45 739.36,653.07 C739.71,651.24 739.37,648.69 738.49,646.49 C737.05,643.03 734.14,639.63 733.13,638.28 C730.40,634.68 719.31,626.59 714.36,624.03 C708.44,620.99 696.60,616.56 691.71,615.15 C686.43,613.64 674.52,612.32 669.17,612.70 C663.48,613.13 648.44,615.95 640.53,618.46 C633.41,620.75 624.87,624.49 615.68,629.20 C606.76,633.93 601.25,637.67 591.50,645.31 C585.99,649.66 575.03,660.04 572.40,664.27 C571.12,666.36 569.01,671.27 567.59,675.04 C566.70,677.54 566.21,683.95 566.56,686.68 C566.81,688.34 567.83,690.54 568.72,691.13 C572.50,693.46 577.47,693.74 578.41,693.66" fill="none" stroke="rgb(0, 0, 0)" stroke-width="17.00" stroke-opacity="1.00" stroke-linejoin="round"/>
<path d="M640.49,953.96 C640.32,953.99 640.05,954.04 639.70,954.11 C636.05,954.73 631.07,954.84 629.09,954.69 C626.18,954.45 620.00,952.51 616.91,950.42 C612.48,947.35 603.35,937.80 598.59,930.89 C593.97,924.02 585.13,910.66 583.05,906.14 C581.60,902.95 576.50,890.15 573.62,882.25 C572.06,877.79 567.69,863.64 566.06,856.37 C564.70,850.22 563.15,839.01 562.34,829.46 C561.82,822.12 562.07,811.23 562.67,801.62 C563.45,792.39 564.81,782.17 566.48,775.54 C568.24,768.89 571.95,757.37 574.52,752.07 C578.41,744.08 585.24,732.59 590.16,726.22 C595.48,719.35 602.13,713.26 610.02,707.79 C618.75,701.91 624.28,698.77 632.57,695.01 C640.89,691.45 653.48,686.56 658.80,685.29 C664.55,683.93 683.31,681.04 688.23,680.60 C694.59,680.05 705.36,680.22 715.60,681.81 C728.70,683.96 733.89,684.74 741.44,687.20 C749.87,690.04 757.35,693.77 767.99,699.82 C770.47,701.27 785.90,713.72 787.21,715.06 C789.01,716.92 802.86,732.62 806.65,738.28 C811.00,744.86 816.95,755.28 820.13,763.08 C822.15,768.09 825.99,782.91 827.82,790.10 C830.84,802.08 832.65,810.25 833.15,816.96 C833.53,822.79 831.86,839.30 831.03,847.10 C829.65,858.28 828.36,865.77 825.61,874.26 C824.96,876.26 822.78,883.80 821.96,885.86 C821.02,888.25 814.92,901.31 809.55,910.04 C805.03,917.14 798.13,925.52 793.72,930.84 C791.00,934.10 784.61,941.64 784.27,941.97 C782.30,943.83 768.58,948.62 766.37,949.17 C765.66,949.35 750.97,951.61 743.10,951.28 C741.39,951.20 722.01,949.97 713.68,949.52 C703.22,949.04 699.26,949.50 687.13,951.44 C683.90,951.92 676.82,952.09 674.12,952.68 C667.30,954.24 661.17,954.84 646.56,956.87 C640.66,957.60 637.18,957.70 634.89,956.58 C632.04,955.18 626.40,952.41 621.87,950.78 C620.14,950.06 617.82,948.00 615.88,946.08" fill="none" stroke="rgb(0, 0, 0)" stroke-width="17.00" stroke-opacity="1.00" stroke-linejoin="round"/>
<path d="M877.32,888.42 C876.56,888.50 872.91,883.18 871.82,880.93 C869.47,875.98 866.00,863.05 864.85,854.85 C863.68,846.05 863.23,832.37 863.53,825.58 C863.75,820.98 865.39,805.48 867.11,794.79 C868.49,787.10 872.19,771.31 873.86,766.02 C876.11,758.98 883.03,743.10 884.63,739.86 C887.67,733.77 894.04,723.64 898.17,718.05 C900.12,715.42 909.99,703.22 914.65,698.72 C923.74,690.06 931.77,682.79 937.32,679.66 C943.58,676.16 953.65,672.11 963.69,669.16 C971.85,666.91 984.17,664.88 990.31,665.03 C996.12,665.21 1011.63,668.29 1016.74,670.31 C1019.60,671.45 1035.02,679.73 1041.50,683.24 C1047.21,686.41 1059.81,696.93 1061.65,698.96 C1063.35,700.84 1074.68,714.83 1078.65,720.12 C1084.22,727.93 1087.59,733.12 1093.06,742.45 C1097.14,749.45 1107.10,766.91 1108.71,770.45 C1109.43,772.06 1114.16,787.28 1116.19,793.76 C1119.78,805.44 1120.91,811.15 1122.08,822.33 C1123.08,833.64 1123.66,844.13 1123.26,851.37 C1122.80,859.54 1121.14,873.19 1119.73,880.37 C1118.14,888.41 1114.16,900.36 1111.34,904.98 C1109.81,907.44 1103.99,914.57 1103.38,915.24 C1100.70,918.15 1089.99,926.62 1081.52,932.92 C1075.03,937.66 1061.93,944.99 1056.20,946.84 C1050.79,948.47 1038.64,952.31 1031.17,954.04 C1024.91,955.44 994.75,959.76 991.85,959.94 C987.63,960.17 970.00,956.05 967.87,955.44 C964.52,954.47 959.52,952.63 953.14,950.61 C949.05,949.26 944.65,946.97 942.72,945.20 C938.15,940.94 930.99,935.55 930.52,935.15 C930.21,934.89 929.74,934.46 929.13,933.86" fill="none" stroke="rgb(0, 0, 0)" stroke-width="17.00" stroke-opacity="1.00" stroke-linejoin="round"/>
<path d="M880.55,979.71 C882.60,980.62 883.99,981.02 884.93,980.80 C886.35,980.46 891.00,978.38 895.37,976.10 C898.96,974.19 912.19,963.82 914.65,960.64 C917.50,956.90 926.06,941.94 928.37,936.02 C930.87,929.53 933.53,915.07 933.11,912.38 C932.64,909.57 929.92,901.29 929.49,900.27 C928.47,897.90 925.88,894.38 924.17,892.81 C921.99,890.85 917.00,887.12 914.09,885.83 C911.88,884.87 906.05,882.94 904.32,882.69 C901.92,882.37 899.09,882.45 895.97,882.86 C892.98,883.25 876.19,889.49 871.95,892.16 C866.05,895.90 857.22,903.19 853.38,907.39 C849.53,911.62 843.34,921.96 841.25,928.52 C839.94,932.68 838.29,939.29 838.04,941.87 C837.73,945.60 837.93,951.10 838.76,953.51" fill="none" stroke="rgb(0, 0, 0)" stroke-width="17.00" stroke-opacity="1.00" stroke-linejoin="round"/>
<path d="M851.25,955.75 C852.33,951.90 861.01,931.74 862.57,929.48 C864.81,926.32 868.06,922.03 870.19,920.15 C871.28,919.20 872.14,918.99 873.04,919.21 C873.66,921.28 872.25,927.28 870.32,931.29 C869.18,933.60 859.48,945.74 856.93,949.14 C855.29,951.36 853.04,954.91 852.95,955.29" fill="none" stroke="rgb(0, 0, 0)" stroke-width="17.00" stroke-opacity="1.00" stroke-linejoin="round"/>
<path d="M870.62,962.49 C872.06,960.39 887.47,943.68 888.60,942.70 C891.24,940.42 897.43,937.64 898.02,937.56 C899.27,937.41 901.79,937.77 902.33,938.18 C902.77,938.58 903.17,940.98 902.98,942.10 C902.70,943.48 898.05,948.47 894.93,950.75 C891.48,953.23 876.86,961.05 871.25,964.65 C870.89,964.88 870.48,965.19 870.02,965.58" fill="none" stroke="rgb(0, 0, 0)" stroke-width="17.00" stroke-opacity="1.00" stroke-linejoin="round"/>
<path d="M806.09,1111.57 C802.55,1111.83 789.48,1111.84 783.94,1111.27 C781.25,1110.99 760.41,1107.49 756.26,1106.55 C750.16,1105.15 736.78,1099.59 730.78,1096.37 C723.16,1092.15 718.10,1088.87 709.61,1082.59 C705.52,1079.50 701.29,1076.08 699.71,1074.29 C697.54,1071.80 694.09,1067.18 692.53,1064.66 C690.78,1061.77 688.96,1057.12 688.17,1053.58 C687.45,1050.20 686.88,1043.95 687.14,1040.79 C687.47,1037.27 689.38,1030.04 691.09,1026.38 C692.11,1024.24 695.60,1018.79 697.41,1016.79 C699.22,1014.81 702.87,1011.66 705.61,1009.69 C710.38,1006.32 724.64,1000.98 729.71,999.50 C735.74,997.76 750.10,996.88 756.20,997.89 C762.86,999.11 775.87,1004.36 779.18,1005.50 C783.58,1007.00 799.81,1010.82 807.51,1012.57 C811.58,1013.46 827.45,1013.75 832.04,1012.96 C845.59,1010.48 880.49,1004.21 885.38,1003.83 C886.18,1003.78 892.85,1003.88 895.03,1004.06 C897.49,1004.28 901.63,1005.54 904.94,1007.61 C906.03,1008.30 909.87,1011.56 911.34,1013.06 C913.05,1014.84 916.89,1019.99 917.77,1022.79 C918.75,1026.00 919.03,1030.80 918.92,1034.00 C918.70,1039.33 918.38,1042.01 917.36,1045.29 C917.12,1046.06 914.63,1055.11 913.71,1056.92 C911.33,1061.55 903.94,1072.76 898.57,1079.15 C891.71,1087.20 881.88,1096.15 878.72,1099.02 C874.16,1103.05 869.14,1107.10 866.07,1108.98 C863.26,1110.67 858.82,1112.39 854.69,1113.46 C848.92,1114.91 835.37,1115.87 829.79,1115.52 C822.76,1114.91 808.43,1113.86 800.63,1113.50 C795.32,1113.28 793.05,1113.27 791.09,1113.26" fill="none" stroke="rgb(0, 0, 0)" stroke-width="17.00" stroke-opacity="1.00" stroke-linejoin="round"/>
<path d="M692.74,1042.05 C692.67,1041.46 713.33,1044.73 716.26,1045.09 C723.50,1046.10 738.57,1048.18 746.38,1049.24 C752.22,1049.93 789.93,1052.80 805.24,1053.75 C819.18,1054.14 858.81,1055.91 862.76,1055.82 C865.08,1055.75 866.78,1055.48 867.44,1055.07 C868.78,1054.13 874.07,1047.49 874.58,1046.88 C878.90,1041.56 882.94,1030.30 886.60,1022.04 C888.65,1017.41 890.99,1012.85 893.20,1009.08" fill="none" stroke="rgb(0, 0, 0)" stroke-width="17.00" stroke-opacity="1.00" stroke-linejoin="round"/>
<path d="M701.34,1072.20 C704.08,1070.54 715.50,1067.52 721.11,1066.92 C725.59,1066.46 742.72,1067.31 746.65,1067.77 C753.25,1068.56 762.08,1070.40 771.30,1073.74 C774.91,1075.11 782.32,1077.98 784.59,1079.14 C785.11,1079.41 801.29,1088.78 804.91,1092.26 C809.01,1096.25 816.84,1106.29 817.24,1106.76 C820.44,1110.19 821.84,1112.18 821.97,1112.49" fill="none" stroke="rgb(0, 0, 0)" stroke-width="17.00" stroke-opacity="1.00" stroke-linejoin="round"/>
<path d="M530.54,879.48 C526.01,878.79 522.42,877.95 519.06,876.30 C515.41,874.49 494.89,866.19 493.99,865.95 C490.53,865.08 472.97,864.95 468.90,865.71 C462.05,867.03 447.37,872.35 441.48,875.75 C437.94,877.83 433.24,882.44 431.19,884.50 C426.70,889.06 419.98,898.61 416.61,904.57 C413.42,910.28 408.53,923.67 407.03,929.89 C405.48,936.57 402.84,950.94 402.58,957.40 C402.34,964.12 404.37,976.41 406.81,985.53 C408.45,991.37 409.80,995.36 411.06,997.83 C412.24,1000.08 414.62,1002.93 418.20,1006.60 C421.03,1009.40 426.11,1013.38 429.23,1015.24 C434.96,1018.61 451.10,1023.64 454.49,1024.19 C455.49,1024.35 464.04,1025.30 467.95,1024.89 C474.22,1024.19 486.52,1020.57 493.95,1016.86 C503.02,1012.20 508.81,1008.78 516.33,1002.77 C521.81,998.37 529.25,989.96 534.03,983.72 C539.84,976.00 553.88,955.49 556.48,951.16" fill="none" stroke="rgb(0, 0, 0)" stroke-width="17.00" stroke-opacity="1.00" stroke-linejoin="round"/>
<path d="M480.33,892.07 C478.81,892.73 460.62,904.37 458.20,906.41 C452.47,911.31 444.05,922.45 440.65,928.46 C438.09,933.01 435.73,938.37 435.15,941.19 C434.59,944.14 434.54,948.95 435.19,950.94 C435.41,951.58 436.75,953.93 437.31,954.49 C439.61,956.72 445.38,958.25 447.63,958.29 C451.01,958.31 456.90,956.71 458.52,955.30 C457.84,956.13 455.25,961.62 454.36,964.91 C453.92,966.54 453.37,971.15 453.46,973.17 C453.59,975.62 455.31,981.40 457.62,983.41 C459.92,985.37 465.30,986.96 467.42,987.16 C470.46,987.42 476.20,986.57 479.92,984.87 C483.11,983.38 487.08,979.86 489.05,977.56 C491.67,974.43 497.61,962.93 499.84,956.94 C501.43,952.66 507.21,934.91 508.88,929.72" fill="none" stroke="rgb(0, 0, 0)" stroke-width="17.00" stroke-opacity="1.00" stroke-linejoin="round"/>
<path d="M523.05,995.04 C523.02,997.58 523.69,1000.58 525.65,1006.43 C529.86,1018.24 534.40,1029.47 537.70,1035.83 C541.75,1043.51 548.01,1053.38 552.82,1059.59 C556.74,1064.64 567.60,1076.06 572.60,1080.99 C580.25,1088.28 588.57,1095.61 593.89,1099.70 C599.26,1103.80 609.28,1110.22 618.47,1115.62 C632.73,1123.52 658.75,1136.08 672.83,1141.65 C683.44,1145.70 717.63,1156.94 727.59,1159.67 C734.40,1161.41 748.14,1164.70 755.20,1166.17 C763.47,1167.72 779.40,1169.34 784.41,1169.67 C805.03,1170.79 818.26,1170.72 842.53,1168.86 C858.51,1167.21 887.02,1160.88 901.28,1157.80 C909.29,1156.15 922.04,1152.33 928.89,1149.55 C935.85,1146.71 947.43,1140.96 956.19,1135.90 C964.64,1130.99 972.44,1126.21 978.04,1121.84 C984.38,1116.82 998.17,1105.62 1003.14,1101.19 C1009.93,1094.90 1018.50,1086.33 1024.27,1079.80 C1032.10,1070.63 1051.50,1046.07 1061.31,1033.77 C1068.26,1025.02 1075.28,1015.43 1078.56,1009.58 C1082.48,1002.47 1097.66,968.16 1101.52,957.57 C1103.83,950.83 1107.56,937.64 1108.79,931.00 C1110.49,921.68 1110.93,915.14 1110.83,914.51 C1110.78,914.24 1110.62,913.68 1110.36,912.84" fill="none" stroke="rgb(0, 0, 0)" stroke-width="17.00" stroke-opacity="1.00" stroke-linejoin="round"/>
<path d="M716.26,1161.18 C715.38,1165.47 714.34,1169.75 712.95,1174.04 C711.57,1178.08 708.78,1186.21 707.37,1190.30 C707.08,1191.13 706.79,1191.97 706.50,1192.80" fill="none" stroke="rgb(0, 0, 0)" stroke-width="17.00" stroke-opacity="1.00" stroke-linejoin="round"/>
<path d="M903.83,1160.94 C903.79,1167.86 901.51,1182.85 900.19,1187.61 C899.52,1190.00 896.50,1198.22 895.38,1200.71 C891.09,1210.22 883.48,1222.23 882.11,1223.95" fill="none" stroke="rgb(0, 0, 0)" stroke-width="17.00" stroke-opacity="1.00" stroke-linejoin="round"/>
<path d="M700.69,1186.57 C701.50,1190.94 707.45,1202.89 711.25,1207.70 C714.61,1211.89 722.60,1219.97 726.94,1223.42 C730.97,1226.61 740.92,1233.22 746.22,1236.10 C751.80,1239.12 763.05,1243.16 769.68,1244.57 C776.12,1245.91 790.30,1247.61 797.48,1247.78 C804.61,1247.94 820.26,1246.70 825.99,1245.88 C830.02,1245.29 844.74,1242.44 852.67,1240.40 C857.24,1239.18 875.01,1233.55 881.65,1230.48 C885.57,1228.65 891.83,1224.93 894.62,1222.70 C899.36,1218.86 906.92,1209.41 908.98,1205.62 C909.81,1204.08 911.59,1199.62 912.20,1197.25" fill="none" stroke="rgb(0, 0, 0)" stroke-width="17.00" stroke-opacity="1.00" stroke-linejoin="round"/>
<path d="M699.95,1154.19 C697.28,1154.09 685.14,1158.15 678.22,1161.67 C672.17,1164.78 660.49,1174.37 656.97,1178.39 C652.55,1183.48 646.14,1194.04 643.24,1201.82 C641.94,1205.36 641.20,1209.01 640.87,1212.98 C640.60,1216.37 641.02,1220.52 641.83,1223.16 C642.72,1225.96 645.69,1232.18 647.56,1234.91 C651.12,1240.05 658.79,1247.53 665.46,1253.05 C671.58,1258.03 682.10,1264.63 684.90,1265.53" fill="none" stroke="rgb(0, 0, 0)" stroke-width="17.00" stroke-opacity="1.00" stroke-linejoin="round"/>
<path d="M920.27,1153.01 C922.88,1153.20 927.51,1155.46 930.52,1158.19 C933.93,1161.35 945.52,1175.37 947.20,1177.81 C950.14,1182.13 955.02,1193.29 956.07,1199.29 C956.70,1203.03 956.96,1208.33 956.70,1211.87 C956.47,1214.82 955.39,1220.35 954.25,1223.81 C952.08,1230.24 945.80,1240.62 941.85,1245.74 C938.23,1250.35 927.65,1260.56 922.67,1264.57 C914.36,1271.24 909.28,1274.00 908.20,1274.43" fill="none" stroke="rgb(0, 0, 0)" stroke-width="17.00" stroke-opacity="1.00" stroke-linejoin="round"/>
<path d="M636.31,1224.24 C635.51,1224.17 631.85,1226.37 629.94,1229.22 C628.88,1230.84 626.89,1236.07 626.10,1239.71 C624.88,1245.55 624.93,1259.58 625.94,1262.15 C627.09,1264.93 629.49,1268.64 632.02,1271.41 C634.87,1274.49 644.26,1280.72 648.66,1282.71" fill="none" stroke="rgb(0, 0, 0)" stroke-width="17.00" stroke-opacity="1.00" stroke-linejoin="round"/>
<path d="M626.35,1249.70 C622.44,1250.27 618.12,1250.70 616.19,1251.25 C609.46,1253.18 597.93,1258.96 591.51,1263.76 C585.98,1267.92 574.78,1278.67 571.99,1281.71 C567.38,1286.87 559.12,1296.62 554.65,1303.47 C550.06,1310.71 542.44,1322.72 539.22,1330.36 C537.68,1334.02 536.18,1338.07 535.70,1339.40" fill="none" stroke="rgb(0, 0, 0)" stroke-width="17.00" stroke-opacity="1.00" stroke-linejoin="round"/>
<path d="M950.65,1229.57 C956.51,1231.02 967.91,1236.04 974.51,1240.10 C978.54,1242.60 990.54,1251.56 996.33,1256.52 C999.49,1259.27 1012.69,1271.74 1016.08,1275.39 C1020.68,1280.46 1031.37,1292.77 1034.71,1297.46 C1035.32,1298.33 1037.27,1300.97 1037.96,1301.90" fill="none" stroke="rgb(0, 0, 0)" stroke-width="17.00" stroke-opacity="1.00" stroke-linejoin="round"/>
<path d="M754.92,757.57 C751.83,757.47 744.84,757.26 743.05,757.51 C741.92,757.69 735.35,759.97 732.25,761.49 C729.04,763.08 723.63,766.56 720.97,768.78 C718.27,771.05 713.26,776.41 711.03,779.41 C706.74,785.24 701.55,796.89 700.00,802.12 C698.36,807.68 696.75,819.03 696.95,824.34 C697.08,827.38 697.68,832.01 698.37,835.17 C699.04,838.12 701.63,845.15 703.62,848.66 C705.56,852.01 710.47,858.05 713.37,860.68 C716.39,863.38 722.73,867.45 725.45,868.73 C730.65,871.14 741.20,873.73 747.01,873.78 C749.88,873.79 756.32,873.06 759.34,872.21 C762.69,871.25 767.97,868.86 771.02,866.92 C773.79,865.13 779.19,860.26 781.25,857.83 C785.69,852.51 791.77,840.09 793.48,834.64 C795.51,828.08 797.62,815.09 797.75,809.07 C797.88,802.08 796.15,788.82 793.94,782.74 C792.42,778.57 789.75,773.03 788.17,770.88 C786.04,768.04 783.15,764.86 781.02,763.15 C778.94,761.52 775.06,759.34 772.20,758.12 C768.52,756.60 755.67,754.76 748.95,755.16 C743.56,755.51 732.11,758.67 729.84,759.56" fill="none" stroke="rgb(0, 0, 0)" stroke-width="17.00" stroke-opacity="1.00" stroke-linejoin="round"/>
<path d="M935.08,754.01 C931.11,754.35 926.71,755.65 924.23,756.78 C921.04,758.27 915.80,761.81 912.70,764.62 C909.76,767.33 905.68,773.07 904.42,775.62 C902.83,778.89 901.02,786.19 900.66,789.72 C900.09,795.73 901.86,808.88 903.49,814.26 C904.16,816.44 906.47,822.31 908.21,825.49 C910.05,828.80 914.96,834.98 917.43,837.09 C920.03,839.26 925.93,842.44 927.61,843.04 C931.18,844.28 937.99,844.84 941.40,844.29 C944.95,843.67 951.49,840.82 954.97,838.34 C956.69,837.08 961.12,832.81 963.08,830.35 C965.39,827.42 968.32,822.61 970.05,818.90 C971.46,815.83 973.21,810.27 973.70,807.08 C974.04,804.81 974.56,796.86 974.45,794.39 C974.25,790.53 972.68,783.33 971.32,780.10 C969.89,776.77 966.68,771.50 964.38,768.63 C962.39,766.17 956.70,760.74 956.32,760.42 C953.93,758.44 947.17,754.52 946.13,754.11 C944.40,753.44 940.13,753.07 938.23,752.95" fill="none" stroke="rgb(0, 0, 0)" stroke-width="17.00" stroke-opacity="1.00" stroke-linejoin="round"/>
<path d="M1089.92,685.30 C1089.92,685.30 1090.97,685.50 1090.97,685.50 C1091.81,688.23 1094.10,705.78 1095.06,713.47 C1095.68,719.18 1096.00,730.87 1096.13,736.26" fill="none" stroke="rgb(0, 0, 0)" stroke-width="17.00" stroke-opacity="1.00" stroke-linejoin="round"/>
<path d="M728.50,96.50 C726.14,97.80 719.28,101.58 716.80,103.92 C713.78,106.82 708.87,114.15 706.96,117.96 C706.61,118.66 697.89,136.36 697.50,137.50 C697.24,138.30 695.65,146.84 693.87,149.68 C693.61,150.10 693.15,150.71 692.50,151.50" fill="none" stroke="rgb(0, 0, 0)" stroke-width="24.80" stroke-opacity="1.00" stroke-linejoin="round"/>
<path d="M851.50,159.50 C852.05,157.06 853.66,149.97 853.70,146.87 C853.73,143.06 852.29,135.49 851.19,132.01 C850.27,129.13 846.92,120.37 846.50,119.50 C844.59,115.63 840.66,111.84 838.42,109.32 C835.50,106.10 830.79,103.61 826.30,102.32 C822.14,101.17 814.72,100.36 811.10,100.64 C807.37,100.97 800.52,102.52 797.49,103.90 C794.41,105.35 789.22,109.51 786.92,112.32 C781.97,118.43 778.98,126.88 777.88,132.18 C777.44,134.19 778.27,135.79 778.50,136.50 C778.68,137.07 778.69,154.44 778.63,158.07 C778.62,160.14 777.64,161.77 777.50,162.50 C777.44,162.84 780.32,172.75 781.50,175.50 C782.92,178.75 787.21,185.37 789.50,187.50 C791.99,189.76 798.98,193.29 803.50,194.50 C805.55,195.03 814.96,196.39 817.81,196.24 C821.57,196.01 828.56,193.28 832.01,190.92 C835.01,188.82 841.02,183.10 843.58,180.08 C844.82,178.57 847.04,175.03 847.75,173.23 C848.45,171.45 849.38,162.74 850.55,160.98 C851.19,160.03 851.50,159.53 851.50,159.50 C851.43,158.45 850.38,155.99 850.52,153.67 C850.94,145.39 851.43,135.80 851.50,134.50" fill="none" stroke="rgb(0, 0, 0)" stroke-width="24.80" stroke-opacity="1.00" stroke-linejoin="round"/>
<path d="M904.50,129.50 C905.11,127.53 905.75,124.53 905.50,123.50 C905.42,123.15 902.86,119.73 902.50,118.50 C902.02,116.89 903.28,110.34 903.50,110.50 C903.90,110.87 904.57,115.48 904.50,117.50 C904.47,118.46 903.55,122.67 903.50,123.50 C903.45,124.31 907.79,171.47 909.56,189.77 C909.73,191.39 910.59,199.81 911.55,201.66 C912.08,202.62 912.73,203.23 913.50,203.50 C914.55,203.86 918.97,204.40 920.50,205.50 C921.94,206.55 924.94,213.24 925.50,214.50" fill="none" stroke="rgb(0, 0, 0)" stroke-width="24.80" stroke-opacity="1.00" stroke-linejoin="round"/>
<path d="M978.50,116.50 C977.38,117.12 973.83,119.05 972.92,119.51 C971.13,120.44 969.07,120.15 968.50,120.50 C968.36,120.59 934.09,186.40 930.56,193.05 C929.83,194.41 926.14,201.39 924.00,202.73 C922.72,203.49 920.75,203.50 919.35,202.98 C917.96,202.42 917.01,202.59 915.50,203.50" fill="none" stroke="rgb(0, 0, 0)" stroke-width="24.80" stroke-opacity="1.00" stroke-linejoin="round"/>
<path d="M662.50,117.50 C661.46,118.86 661.52,119.84 663.05,122.66 C664.34,125.12 664.64,127.57 664.00,130.16 C663.37,132.72 663.63,134.34 665.00,136.50 C666.37,138.66 666.63,140.28 666.00,142.84 C665.36,145.43 665.66,147.89 666.96,150.34 C668.48,153.16 668.54,154.14 667.50,155.50" fill="none" stroke="rgb(0, 0, 0)" stroke-width="24.80" stroke-opacity="1.00" stroke-linejoin="round"/>
<path d="M600.50,132.50 C600.50,132.50 604.50,139.50 604.50,139.50" fill="none" stroke="rgb(0, 0, 0)" stroke-width="24.80" stroke-opacity="1.00" stroke-linejoin="round"/>
<path d="M777.50,162.50 C777.06,161.02 774.52,152.21 774.50,148.50 C774.52,144.79 777.06,135.98 777.50,134.50" fill="none" stroke="rgb(0, 0, 0)" stroke-width="24.80" stroke-opacity="1.00" stroke-linejoin="round"/>
<path d="M905.50,139.50 C905.50,139.50 905.50,135.50 905.50,135.50" fill="none" stroke="rgb(0, 0, 0)" stroke-width="24.80" stroke-opacity="1.00" stroke-linejoin="round"/>
<path d="M905.50,139.50 C905.50,139.50 905.50,135.50 905.50,135.50" fill="none" stroke="rgb(0, 0, 0)" stroke-width="24.80" stroke-opacity="1.00" stroke-linejoin="round"/>
<path d="M661.50,114.50 C662.64,117.67 663.00,123.46 663.38,126.72 C663.65,129.08 665.31,132.25 665.50,133.50 C665.56,133.84 664.26,138.18 664.50,139.50 C664.65,140.34 667.33,145.43 667.50,146.50 C667.74,147.89 666.48,153.31 666.50,153.50 C666.54,153.93 666.87,154.60 667.50,155.50" fill="none" stroke="rgb(0, 0, 0)" stroke-width="24.80" stroke-opacity="1.00" stroke-linejoin="round"/>
<path d="M695.50,146.50 C695.59,148.32 695.93,150.78 696.50,151.50 C696.75,151.81 701.29,154.47 702.50,155.50 C703.66,156.48 735.11,197.14 735.50,197.50 C735.60,197.59 748.99,201.91 750.50,202.50" fill="none" stroke="rgb(0, 0, 0)" stroke-width="24.80" stroke-opacity="1.00" stroke-linejoin="round"/>
<path d="M1068.50,146.50 C1065.66,147.44 1058.34,150.00 1056.50,151.50 C1054.93,152.84 1054.03,154.40 1053.05,157.35 C1052.16,160.10 1049.22,166.86 1047.01,171.67 C1044.89,176.45 1043.18,181.21 1043.50,184.50 C1043.86,188.17 1044.36,193.17 1044.50,194.50" fill="none" stroke="rgb(0, 0, 0)" stroke-width="24.80" stroke-opacity="1.00" stroke-linejoin="round"/>
<path d="M696.50,151.50 C695.52,152.20 694.85,152.53 694.50,152.50 C693.76,152.46 693.25,151.46 692.50,151.50 C692.09,151.53 684.99,158.33 684.50,158.50 C683.87,158.71 683.09,158.18 682.50,158.50 C681.66,158.93 681.33,160.05 680.50,160.50 C680.10,160.70 671.43,159.09 668.50,158.50" fill="none" stroke="rgb(0, 0, 0)" stroke-width="24.80" stroke-opacity="1.00" stroke-linejoin="round"/>
<path d="M559.50,158.50 C559.50,158.50 559.50,155.50 559.50,155.50" fill="none" stroke="rgb(0, 0, 0)" stroke-width="24.80" stroke-opacity="1.00" stroke-linejoin="round"/>
<path d="M1125.50,172.50 C1122.76,173.65 1115.00,177.05 1114.50,177.50 C1114.10,177.88 1113.47,181.73 1111.24,186.44 C1107.48,193.93 1098.70,211.91 1096.67,216.81 C1094.93,221.04 1088.33,239.39 1085.05,246.13 C1081.94,252.34 1079.52,257.94 1079.50,258.50 C1079.48,259.92 1080.51,262.22 1081.50,263.50" fill="none" stroke="rgb(0, 0, 0)" stroke-width="24.80" stroke-opacity="1.00" stroke-linejoin="round"/>
<path d="M581.50,176.50 C583.71,177.49 586.60,177.50 593.55,176.51 C595.58,176.23 597.66,176.84 598.85,177.99 C600.37,179.46 601.28,179.76 603.19,179.27 C603.59,179.17 604.36,178.91 605.50,178.50" fill="none" stroke="rgb(0, 0, 0)" stroke-width="24.80" stroke-opacity="1.00" stroke-linejoin="round"/>
<path d="M611.50,127.50 C610.38,127.88 606.89,129.07 605.93,129.42 C604.23,130.03 601.62,132.05 600.50,132.50 C600.19,132.62 590.78,131.79 587.28,131.55 C583.38,131.30 578.49,133.51 575.87,134.26 C572.58,135.25 565.80,140.04 564.50,141.50 C562.39,143.93 559.38,155.19 559.50,155.50 C559.68,155.94 560.51,156.03 560.50,156.50 C560.50,157.25 559.65,157.77 559.50,158.50 C559.41,158.94 560.48,161.89 560.50,162.50 C560.55,163.17 560.59,164.79 561.87,166.30 C565.02,170.08 569.35,173.79 572.69,174.95 C574.14,175.43 577.73,176.06 579.31,176.30 C581.16,176.58 582.82,175.81 583.50,175.50 C584.31,175.14 586.93,175.08 587.50,175.50 C588.02,175.88 589.33,178.13 590.50,178.50 C591.33,178.75 601.13,177.24 602.50,177.50 C604.61,177.92 608.48,180.14 609.50,180.50 C610.44,180.85 613.25,180.35 613.50,180.50 C614.31,180.98 615.86,182.77 617.31,182.95 C618.64,183.15 620.60,183.96 621.54,184.90 C623.39,186.81 626.59,195.07 626.50,195.50 C626.00,196.50 625.36,198.17 625.93,200.00 C626.34,201.38 626.53,202.21 626.50,202.50 C626.42,203.24 625.26,205.02 624.97,206.63 C624.17,210.82 622.18,215.63 620.27,217.14 C616.54,220.04 597.98,226.56 592.52,227.14 C590.20,227.36 584.88,226.68 581.13,225.17 C579.24,224.43 577.66,224.59 576.10,225.66 C572.77,228.01 570.07,229.01 568.50,229.50" fill="none" stroke="rgb(0, 0, 0)" stroke-width="24.80" stroke-opacity="1.00" stroke-linejoin="round"/>
<path d="M472.50,179.50 C467.87,183.92 463.77,186.95 460.78,187.11 C460.02,187.13 455.96,186.75 454.99,186.82 C452.06,187.05 445.40,190.07 441.31,192.62 C436.63,195.64 431.92,199.30 430.79,201.41 C429.54,203.83 427.89,212.07 427.97,214.84 C428.13,218.49 431.43,225.17 434.19,228.34 C435.50,229.78 438.13,231.64 439.63,232.11 C442.82,233.05 447.56,231.44 448.97,231.51 C449.19,231.52 473.10,232.15 481.86,232.41 C487.50,232.50 488.07,232.36 489.50,231.50" fill="none" stroke="rgb(0, 0, 0)" stroke-width="24.80" stroke-opacity="1.00" stroke-linejoin="round"/>
<path d="M1043.50,184.50 C1040.64,189.79 1032.67,204.85 1030.50,209.50 C1027.46,216.06 1021.99,229.54 1021.62,230.42 C1020.39,233.17 1017.07,235.03 1015.50,235.50" fill="none" stroke="rgb(0, 0, 0)" stroke-width="24.80" stroke-opacity="1.00" stroke-linejoin="round"/>
<path d="M463.50,186.50 C463.50,186.50 471.50,195.50 471.50,195.50" fill="none" stroke="rgb(0, 0, 0)" stroke-width="24.80" stroke-opacity="1.00" stroke-linejoin="round"/>
<path d="M1039.50,193.50 C1049.60,195.99 1058.92,198.69 1067.53,202.26 C1074.63,205.41 1086.15,210.43 1086.50,210.50 C1087.48,210.70 1090.11,210.29 1090.50,210.50 C1091.57,211.06 1092.32,212.27 1093.50,212.50 C1094.23,212.65 1094.76,211.56 1095.50,211.50 C1095.94,211.47 1096.94,211.80 1098.50,212.50" fill="none" stroke="rgb(0, 0, 0)" stroke-width="24.80" stroke-opacity="1.00" stroke-linejoin="round"/>
<path d="M626.50,195.50 C627.60,200.98 627.40,202.01 626.50,202.50" fill="none" stroke="rgb(0, 0, 0)" stroke-width="24.80" stroke-opacity="1.00" stroke-linejoin="round"/>
<path d="M686.50,212.50 C683.59,210.31 675.10,203.80 675.00,203.50 C674.80,202.84 675.50,202.19 675.50,201.50 C675.52,200.97 673.44,198.09 673.50,197.50 C673.62,196.45 674.71,195.54 674.50,194.50 C674.28,193.32 672.78,192.67 672.50,191.50 C672.27,190.47 673.65,188.01 673.56,185.95 C673.49,182.54 673.25,173.54 673.50,172.50 C673.84,171.17 675.57,169.36 676.50,168.50 C677.24,167.66 680.00,161.61 680.50,160.50" fill="none" stroke="rgb(0, 0, 0)" stroke-width="24.80" stroke-opacity="1.00" stroke-linejoin="round"/>
<path d="M674.50,202.50 C673.61,201.86 673.38,201.11 673.80,199.62 C674.08,198.62 674.14,197.91 674.00,197.50 C673.63,196.45 672.65,195.61 672.50,194.50 C672.67,193.33 672.83,192.17 673.00,191.00 C672.87,190.04 671.30,188.11 671.12,186.24 C670.74,183.17 667.42,160.78 667.50,160.50 C667.71,159.79 668.57,158.17 668.16,156.01 C668.12,155.77 662.71,122.74 662.50,121.50" fill="none" stroke="rgb(0, 0, 0)" stroke-width="24.80" stroke-opacity="1.00" stroke-linejoin="round"/>
<path d="M675.50,204.50 C675.50,204.50 667.50,213.50 667.50,213.50" fill="none" stroke="rgb(0, 0, 0)" stroke-width="24.80" stroke-opacity="1.00" stroke-linejoin="round"/>
<path d="M1094.50,221.50 C1094.50,221.50 1093.50,212.50 1093.50,212.50" fill="none" stroke="rgb(0, 0, 0)" stroke-width="24.80" stroke-opacity="1.00" stroke-linejoin="round"/>
<path d="M1138.50,261.50 C1139.82,260.83 1141.63,259.53 1142.50,258.50 C1143.15,257.73 1144.53,254.36 1144.77,253.97 C1146.34,251.46 1161.45,238.22 1168.34,232.35 C1173.95,227.71 1182.00,221.05 1183.25,220.76 C1183.79,220.65 1192.60,219.95 1193.50,220.50 C1194.43,221.07 1195.90,224.05 1196.50,224.50 C1197.29,225.09 1202.50,222.50 1204.50,221.50" fill="none" stroke="rgb(0, 0, 0)" stroke-width="24.80" stroke-opacity="1.00" stroke-linejoin="round"/>
<path d="M1196.50,224.50 C1196.62,231.14 1195.00,238.87 1191.67,251.14 C1190.30,255.95 1187.65,265.08 1186.38,269.39 C1185.36,272.68 1183.51,278.74 1181.98,280.47 C1180.31,282.38 1179.07,287.01 1178.50,289.50" fill="none" stroke="rgb(0, 0, 0)" stroke-width="24.80" stroke-opacity="1.00" stroke-linejoin="round"/>
<path d="M444.50,232.50 C448.20,234.05 454.06,234.84 458.72,234.20 C460.94,233.86 466.10,230.37 468.95,230.23 C473.08,230.02 479.63,230.01 483.41,230.22 C487.26,230.47 493.08,231.96 495.37,233.62 C497.59,235.31 501.57,241.03 502.67,244.10 C503.79,247.41 503.43,254.00 502.37,258.44 C501.45,262.14 498.74,267.18 496.50,269.50 C494.42,271.59 488.72,275.56 485.11,277.09 C481.01,278.78 476.56,280.05 472.50,280.50 C471.95,280.56 463.96,281.60 461.51,281.06 C459.97,280.94 455.82,284.07 451.50,287.50" fill="none" stroke="rgb(0, 0, 0)" stroke-width="24.80" stroke-opacity="1.00" stroke-linejoin="round"/>
<path d="M372.50,362.50 C373.96,357.27 376.53,350.31 376.96,349.18 C377.87,346.67 376.59,343.15 374.50,338.50 C372.04,333.25 370.43,328.95 369.80,325.24 C369.69,324.58 369.07,320.23 368.73,318.30 C368.41,316.59 367.36,315.10 365.81,314.06 C363.55,312.56 363.12,312.08 362.51,310.23 C357.66,294.91 355.51,289.27 351.45,280.52 C349.95,277.22 347.24,270.00 346.36,266.40 C345.39,262.33 345.41,255.79 346.50,254.50 C347.73,253.16 350.07,252.52 353.41,252.50 C357.87,252.56 359.83,253.03 362.64,254.98 C368.93,259.34 382.96,269.16 390.70,274.61 C393.49,276.70 399.59,281.23 400.95,283.28 C401.39,283.95 402.47,286.45 403.50,287.50 C405.10,289.11 411.08,292.43 413.68,292.88 C415.22,293.15 423.58,300.19 423.94,300.47 C425.53,301.73 429.00,303.89 430.50,304.50 C432.60,305.31 435.68,305.69 437.73,305.43 C438.17,305.37 441.28,304.72 442.50,304.50" fill="none" stroke="rgb(0, 0, 0)" stroke-width="24.80" stroke-opacity="1.00" stroke-linejoin="round"/>
<path d="M1067.50,263.50 C1067.50,263.50 1079.50,258.50 1079.50,258.50" fill="none" stroke="rgb(0, 0, 0)" stroke-width="24.80" stroke-opacity="1.00" stroke-linejoin="round"/>
<path d="M1098.50,279.50 C1101.37,279.39 1108.04,279.14 1111.92,278.86 C1113.86,278.68 1116.08,278.02 1116.86,277.17 C1117.56,276.39 1118.96,273.88 1120.92,272.18 C1124.29,269.24 1130.86,264.07 1132.75,263.73 C1135.11,263.36 1138.12,261.47 1138.50,261.50 C1139.24,261.56 1141.05,262.67 1142.50,262.50" fill="none" stroke="rgb(0, 0, 0)" stroke-width="24.80" stroke-opacity="1.00" stroke-linejoin="round"/>
<path d="M1180.50,282.50 C1178.96,283.26 1177.96,283.59 1177.50,283.50 C1176.58,283.32 1176.20,282.13 1175.50,281.50 C1175.09,281.14 1172.21,281.25 1171.36,281.03 C1168.73,280.36 1160.78,275.41 1158.24,273.71 C1154.29,271.00 1142.54,262.77 1142.50,262.50 C1142.41,261.76 1143.45,261.24 1143.50,260.50 C1143.53,260.13 1143.20,259.47 1142.50,258.50" fill="none" stroke="rgb(0, 0, 0)" stroke-width="24.80" stroke-opacity="1.00" stroke-linejoin="round"/>
<path d="M1260.50,281.50 C1261.76,279.81 1263.68,277.67 1264.50,277.50 C1265.31,277.35 1267.54,279.67 1267.50,280.50 C1267.48,280.87 1267.14,281.53 1266.50,282.50" fill="none" stroke="rgb(0, 0, 0)" stroke-width="24.80" stroke-opacity="1.00" stroke-linejoin="round"/>
<path d="M1115.50,286.50 C1115.50,286.50 1114.50,278.50 1114.50,278.50" fill="none" stroke="rgb(0, 0, 0)" stroke-width="24.80" stroke-opacity="1.00" stroke-linejoin="round"/>
<path d="M463.50,282.50 C463.50,282.50 463.50,288.50 463.50,288.50" fill="none" stroke="rgb(0, 0, 0)" stroke-width="24.80" stroke-opacity="1.00" stroke-linejoin="round"/>
<path d="M1204.50,353.50 C1204.35,350.49 1203.84,342.04 1203.50,341.50 C1203.25,341.10 1202.44,340.97 1202.50,340.50 C1202.50,340.49 1240.48,299.07 1245.19,292.65 C1247.07,290.10 1251.04,285.69 1253.55,284.73 C1254.27,284.45 1258.02,283.91 1258.50,283.50 C1259.23,282.90 1259.62,281.84 1260.50,281.50 C1261.04,281.29 1264.63,282.13 1266.50,282.50" fill="none" stroke="rgb(0, 0, 0)" stroke-width="24.80" stroke-opacity="1.00" stroke-linejoin="round"/>
<path d="M1266.50,282.50 C1266.61,283.62 1267.24,290.13 1266.50,294.50 C1265.88,298.04 1254.64,340.11 1250.50,355.50 C1248.96,361.60 1248.01,366.41 1247.61,369.63 C1247.36,371.80 1248.56,375.36 1248.50,375.50 C1248.33,375.94 1247.50,376.03 1247.50,376.50 C1247.50,376.99 1248.46,376.82 1248.85,377.12 C1249.89,377.95 1250.75,380.12 1250.92,382.29 C1251.23,386.76 1251.42,393.47 1251.50,396.50" fill="none" stroke="rgb(0, 0, 0)" stroke-width="24.80" stroke-opacity="1.00" stroke-linejoin="round"/>
<path d="M1177.50,283.50 C1177.86,285.50 1178.58,289.13 1178.50,289.50 C1178.41,289.96 1177.32,290.84 1177.34,292.82 C1177.36,297.16 1176.02,302.37 1173.92,306.97 C1172.98,309.15 1172.38,312.24 1172.50,314.50 C1172.79,318.57 1178.00,329.46 1178.50,330.50" fill="none" stroke="rgb(0, 0, 0)" stroke-width="24.80" stroke-opacity="1.00" stroke-linejoin="round"/>
<path d="M403.50,287.50 C403.50,287.50 403.50,291.50 403.50,291.50" fill="none" stroke="rgb(0, 0, 0)" stroke-width="24.80" stroke-opacity="1.00" stroke-linejoin="round"/>
<path d="M407.50,290.50 C405.07,290.64 403.19,291.68 398.71,295.23 C395.36,297.98 387.21,304.72 385.07,306.39 C380.54,309.84 374.68,313.57 371.39,314.15 C370.85,314.24 370.22,314.36 369.50,314.50" fill="none" stroke="rgb(0, 0, 0)" stroke-width="24.80" stroke-opacity="1.00" stroke-linejoin="round"/>
<path d="M430.50,304.50 C430.80,305.95 431.62,309.89 431.50,310.50 C431.37,311.23 430.65,311.77 430.50,312.50 C430.39,313.03 431.20,316.29 431.50,317.50" fill="none" stroke="rgb(0, 0, 0)" stroke-width="24.80" stroke-opacity="1.00" stroke-linejoin="round"/>
<path d="M286.50,310.50 C296.13,320.67 319.51,345.20 333.26,359.57 C338.37,364.65 347.48,373.49 347.50,373.50 C349.58,374.81 351.91,375.00 353.58,374.11 C354.81,373.41 356.13,373.58 358.50,374.50" fill="none" stroke="rgb(0, 0, 0)" stroke-width="24.80" stroke-opacity="1.00" stroke-linejoin="round"/>
<path d="M1311.50,316.50 C1307.41,320.91 1297.07,332.06 1290.82,338.82 C1285.65,344.53 1274.53,356.93 1270.88,362.72 C1269.54,364.81 1265.02,367.82 1264.50,368.50 C1264.04,369.09 1263.21,370.83 1261.44,371.54 C1257.20,373.25 1252.92,376.41 1250.50,379.50" fill="none" stroke="rgb(0, 0, 0)" stroke-width="24.80" stroke-opacity="1.00" stroke-linejoin="round"/>
<path d="M377.50,346.50 C378.60,346.60 381.35,346.85 383.00,347.01 C384.97,347.18 386.05,347.84 387.50,349.50" fill="none" stroke="rgb(0, 0, 0)" stroke-width="24.80" stroke-opacity="1.00" stroke-linejoin="round"/>
<path d="M1250.50,355.50 C1253.04,357.69 1257.12,361.22 1258.50,362.50 C1260.54,364.40 1263.84,367.81 1264.50,368.50" fill="none" stroke="rgb(0, 0, 0)" stroke-width="24.80" stroke-opacity="1.00" stroke-linejoin="round"/>
<path d="M201.50,396.50 C203.07,396.36 208.49,395.86 209.29,395.82 C212.21,395.66 213.23,395.08 213.50,393.50 C213.51,393.41 213.65,389.51 214.14,388.19 C215.37,384.91 220.69,377.56 222.61,375.19 C225.79,371.33 231.45,366.22 234.50,364.50 C238.37,362.39 245.73,360.81 250.25,360.83 C251.08,360.85 255.49,361.18 256.50,361.50 C259.23,362.43 261.55,364.26 262.94,366.61 C264.74,369.77 266.09,374.40 266.50,377.50 C266.53,377.70 267.58,389.28 267.50,389.50 C267.27,390.08 254.30,409.21 248.87,414.59 C247.71,415.75 247.22,417.57 247.67,418.75 C247.93,419.34 248.55,419.86 248.50,420.50 C248.48,420.82 248.15,421.49 247.50,422.50" fill="none" stroke="rgb(0, 0, 0)" stroke-width="24.80" stroke-opacity="1.00" stroke-linejoin="round"/>
<path d="M1384.50,406.50 C1382.53,405.47 1380.99,402.51 1379.95,398.00 C1378.80,393.01 1376.51,386.94 1374.16,383.91 C1372.75,382.13 1365.43,375.54 1364.81,375.22 C1363.74,374.69 1355.58,373.37 1351.53,372.79 C1349.23,372.47 1347.23,372.56 1345.80,373.01 C1345.36,373.17 1343.13,373.27 1342.50,373.50 C1342.43,373.53 1334.70,380.10 1334.50,380.50 C1334.22,381.10 1334.50,383.24 1334.01,384.64 C1333.64,385.77 1333.47,386.39 1333.50,386.50 C1333.62,386.96 1334.35,387.05 1334.50,387.50 C1334.63,387.87 1333.67,396.07 1333.50,397.50" fill="none" stroke="rgb(0, 0, 0)" stroke-width="24.80" stroke-opacity="1.00" stroke-linejoin="round"/>
<path d="M347.50,373.50 C347.50,373.50 347.50,388.50 347.50,388.50" fill="none" stroke="rgb(0, 0, 0)" stroke-width="24.80" stroke-opacity="1.00" stroke-linejoin="round"/>
<path d="M1248.50,373.50 C1248.50,373.50 1255.50,374.50 1255.50,374.50" fill="none" stroke="rgb(0, 0, 0)" stroke-width="24.80" stroke-opacity="1.00" stroke-linejoin="round"/>
<path d="M267.50,389.50 C270.56,389.14 277.79,388.25 281.50,387.50 C284.13,386.96 291.14,385.08 293.50,385.50 C296.10,386.02 301.61,390.07 303.50,392.50 C305.28,394.85 308.14,401.74 308.50,404.50 C308.82,407.23 307.66,413.28 306.50,416.50 C305.38,419.56 301.60,427.37 299.50,430.50 C297.51,433.44 290.25,441.74 289.50,442.50 C287.58,444.42 282.50,447.00 279.50,448.50" fill="none" stroke="rgb(0, 0, 0)" stroke-width="24.80" stroke-opacity="1.00" stroke-linejoin="round"/>
<path d="M1333.50,386.50 C1332.64,387.68 1331.59,390.02 1331.50,391.50 C1331.43,392.78 1336.74,414.44 1338.68,421.64 C1339.91,426.15 1342.71,432.34 1342.50,433.50 C1342.21,434.97 1340.75,437.70 1339.50,439.50" fill="none" stroke="rgb(0, 0, 0)" stroke-width="24.80" stroke-opacity="1.00" stroke-linejoin="round"/>
<path d="M212.50,395.50 C216.90,400.29 229.45,411.01 233.35,413.99 C236.03,416.06 242.55,417.89 244.61,419.60 C247.00,421.61 251.41,428.77 253.58,430.30 C259.10,433.96 269.42,443.42 271.50,444.50 C273.44,445.51 276.71,445.61 277.52,446.04 C278.52,446.59 279.94,449.43 280.30,451.25 C280.83,454.26 281.32,462.45 281.50,465.50" fill="none" stroke="rgb(0, 0, 0)" stroke-width="24.80" stroke-opacity="1.00" stroke-linejoin="round"/>
<path d="M1287.50,414.50 C1287.73,416.96 1288.39,424.06 1289.19,426.82 C1290.22,430.32 1293.70,436.45 1296.11,439.46 C1297.68,441.40 1303.31,447.49 1305.94,449.21 C1309.50,451.47 1324.17,452.91 1326.50,452.50 C1328.36,452.14 1330.86,450.93 1332.27,449.73 C1334.58,447.68 1339.52,439.81 1339.50,439.50 C1339.44,438.76 1338.34,437.00 1338.52,434.87 C1338.84,430.95 1339.37,425.78 1339.50,424.50" fill="none" stroke="rgb(0, 0, 0)" stroke-width="24.80" stroke-opacity="1.00" stroke-linejoin="round"/>
<path d="M241.50,417.50 C241.50,417.50 247.50,416.50 247.50,416.50" fill="none" stroke="rgb(0, 0, 0)" stroke-width="24.80" stroke-opacity="1.00" stroke-linejoin="round"/>
<path d="M1321.50,454.50 C1321.50,454.50 1321.50,457.50 1321.50,457.50" fill="none" stroke="rgb(0, 0, 0)" stroke-width="24.80" stroke-opacity="1.00" stroke-linejoin="round"/>
<path d="M1416.50,457.50 C1416.50,457.50 1419.50,457.50 1419.50,457.50" fill="none" stroke="rgb(0, 0, 0)" stroke-width="24.80" stroke-opacity="1.00" stroke-linejoin="round"/>
<path d="M1455.50,498.50 C1453.95,498.11 1448.46,496.67 1447.78,496.52 C1444.96,495.87 1443.84,494.96 1442.50,492.50 C1441.32,490.20 1430.87,471.57 1428.07,466.97 C1425.53,462.82 1420.69,457.33 1419.50,457.50 C1418.77,457.65 1418.25,458.53 1417.50,458.50 C1417.03,458.51 1416.97,457.58 1416.50,457.50 C1416.25,457.47 1390.20,469.91 1389.50,470.50 C1388.81,471.09 1386.79,474.24 1386.50,474.50 C1385.42,475.47 1348.19,494.17 1346.22,494.96 C1344.47,495.69 1343.62,496.82 1343.50,498.50 C1343.45,499.93 1345.50,507.07 1347.04,511.01 C1349.22,516.53 1364.33,541.77 1365.50,542.50 C1367.18,543.52 1370.67,543.32 1371.50,543.50 C1371.78,543.56 1372.11,543.89 1372.50,544.50" fill="none" stroke="rgb(0, 0, 0)" stroke-width="24.80" stroke-opacity="1.00" stroke-linejoin="round"/>
<path d="M193.50,459.50 C192.10,459.68 188.60,460.12 186.51,460.37 C184.21,460.66 181.55,459.61 180.50,459.50 C179.98,459.45 168.02,463.31 165.50,464.50 C163.47,465.49 160.86,467.28 159.77,468.52 C157.69,470.94 153.64,478.25 151.95,481.99 C150.33,485.63 148.84,491.63 148.59,494.65 C148.38,497.58 149.34,503.36 150.33,506.36 C151.31,509.26 154.75,515.96 155.85,517.53 C157.75,520.20 163.34,525.10 166.71,527.48 C169.57,529.48 176.64,533.82 179.82,535.58 C184.19,537.91 190.38,540.66 194.01,541.37 C199.17,542.39 204.27,544.60 204.50,544.50 C205.37,544.13 206.91,542.12 207.96,541.96 C210.54,541.53 219.11,538.84 221.99,537.84 C226.33,536.31 231.24,533.36 233.50,530.50 C235.05,528.48 238.42,522.05 239.50,518.50 C240.25,515.97 241.41,508.86 241.57,505.44 C241.62,503.64 241.21,500.03 240.68,498.22 C240.46,497.49 238.57,493.13 238.50,492.50 C238.43,491.84 238.42,490.24 237.25,488.75 C237.06,488.50 230.29,479.36 227.99,477.00 C225.03,474.00 218.60,469.48 214.93,467.67 C211.78,466.14 202.57,463.05 200.61,462.36 C195.89,460.69 189.77,457.64 188.50,457.50 C187.38,457.40 181.56,459.17 180.50,459.50" fill="none" stroke="rgb(0, 0, 0)" stroke-width="24.80" stroke-opacity="1.00" stroke-linejoin="round"/>
<path d="M1386.50,474.50 C1386.83,475.48 1387.65,477.99 1387.50,478.50 C1387.31,479.22 1386.54,479.76 1386.50,480.50 C1386.49,480.84 1399.87,506.59 1400.50,507.50 C1401.54,509.06 1403.61,511.16 1403.50,511.50 C1403.11,512.64 1401.07,515.22 1400.67,517.04 C1400.40,518.20 1399.73,521.41 1399.50,522.50" fill="none" stroke="rgb(0, 0, 0)" stroke-width="24.80" stroke-opacity="1.00" stroke-linejoin="round"/>
<path d="M1377.50,479.50 C1377.50,479.50 1386.50,480.50 1386.50,480.50" fill="none" stroke="rgb(0, 0, 0)" stroke-width="24.80" stroke-opacity="1.00" stroke-linejoin="round"/>
<path d="M1444.50,495.50 C1444.50,495.50 1441.50,506.50 1441.50,506.50" fill="none" stroke="rgb(0, 0, 0)" stroke-width="24.80" stroke-opacity="1.00" stroke-linejoin="round"/>
<path d="M1403.50,511.50 C1403.50,511.50 1413.50,513.50 1413.50,513.50" fill="none" stroke="rgb(0, 0, 0)" stroke-width="24.80" stroke-opacity="1.00" stroke-linejoin="round"/>
<path d="M197.50,541.50 C198.86,541.33 202.27,540.92 204.32,540.69 C206.76,540.38 208.27,540.63 210.50,541.50" fill="none" stroke="rgb(0, 0, 0)" stroke-width="24.80" stroke-opacity="1.00" stroke-linejoin="round"/>
<path d="M1361.50,552.50 C1361.50,552.50 1365.50,542.50 1365.50,542.50" fill="none" stroke="rgb(0, 0, 0)" stroke-width="24.80" stroke-opacity="1.00" stroke-linejoin="round"/>
<path d="M204.50,544.50 C204.50,544.50 204.50,551.50 204.50,551.50" fill="none" stroke="rgb(0, 0, 0)" stroke-width="24.80" stroke-opacity="1.00" stroke-linejoin="round"/>
<path d="M1460.50,554.50 C1462.53,553.23 1465.43,551.66 1466.50,551.50 C1467.78,551.34 1469.07,553.20 1468.50,554.50 C1467.99,555.63 1465.44,558.52 1463.50,560.50" fill="none" stroke="rgb(0, 0, 0)" stroke-width="24.80" stroke-opacity="1.00" stroke-linejoin="round"/>
<path d="M1379.50,592.50 C1380.74,589.47 1384.45,580.53 1384.50,580.50 C1385.06,580.14 1386.88,580.48 1388.72,579.80 C1393.14,578.30 1410.76,571.55 1418.50,568.50 C1426.42,565.24 1439.96,559.08 1446.76,557.23 C1449.85,556.40 1457.77,554.99 1460.50,554.50" fill="none" stroke="rgb(0, 0, 0)" stroke-width="24.80" stroke-opacity="1.00" stroke-linejoin="round"/>
<path d="M1460.50,554.50 C1461.51,556.60 1463.48,560.26 1463.50,560.50 C1463.54,560.97 1462.22,561.81 1461.97,563.25 C1461.05,567.55 1458.56,572.37 1455.69,575.68 C1448.81,583.59 1427.15,606.67 1421.45,612.80 C1419.34,615.15 1414.71,620.29 1413.80,622.52 C1413.58,623.07 1411.42,630.98 1411.50,631.50 C1411.62,632.26 1412.66,634.67 1413.50,636.50" fill="none" stroke="rgb(0, 0, 0)" stroke-width="24.80" stroke-opacity="1.00" stroke-linejoin="round"/>
<path d="M108.50,589.50 C111.09,591.38 116.25,593.51 118.68,594.40 C150.59,605.61 187.40,618.48 187.50,618.50 C190.14,619.22 190.90,619.83 192.08,622.42 C192.36,623.06 194.81,628.07 195.50,629.50" fill="none" stroke="rgb(0, 0, 0)" stroke-width="24.80" stroke-opacity="1.00" stroke-linejoin="round"/>
<path d="M113.50,592.50 C113.50,592.50 106.50,593.50 106.50,593.50" fill="none" stroke="rgb(0, 0, 0)" stroke-width="24.80" stroke-opacity="1.00" stroke-linejoin="round"/>
<path d="M99.50,631.50 C98.58,630.24 95.91,626.69 95.48,625.74 C94.66,623.91 94.42,619.85 94.94,617.90 C95.52,615.87 99.83,606.10 100.80,602.30 C101.10,601.15 101.99,597.11 102.50,596.50 C102.87,596.07 106.10,594.07 106.50,593.50 C107.01,592.76 116.29,558.78 116.50,558.50 C117.36,557.42 118.38,556.63 119.58,556.12 C120.50,555.75 121.62,555.96 122.50,555.50 C122.93,555.29 123.59,554.62 124.50,553.50" fill="none" stroke="rgb(0, 0, 0)" stroke-width="24.80" stroke-opacity="1.00" stroke-linejoin="round"/>
<path d="M1501.50,615.50 C1495.90,612.68 1491.89,610.93 1491.50,610.50 C1490.57,609.51 1490.28,609.49 1488.28,610.36 C1487.91,610.52 1443.96,627.77 1428.93,633.61 C1425.54,634.91 1418.95,635.39 1418.50,635.50 C1416.10,636.09 1408.97,638.92 1407.50,639.50" fill="none" stroke="rgb(0, 0, 0)" stroke-width="24.80" stroke-opacity="1.00" stroke-linejoin="round"/>
<path d="M199.50,614.50 C199.50,614.50 190.50,619.50 190.50,619.50" fill="none" stroke="rgb(0, 0, 0)" stroke-width="24.80" stroke-opacity="1.00" stroke-linejoin="round"/>
<path d="M89.50,622.50 C89.50,622.50 94.50,621.50 94.50,621.50" fill="none" stroke="rgb(0, 0, 0)" stroke-width="24.80" stroke-opacity="1.00" stroke-linejoin="round"/>
<path d="M1411.50,631.50 C1409.89,633.34 1406.60,636.96 1406.50,637.50 C1406.36,638.23 1407.38,638.77 1407.50,639.50 C1407.57,639.88 1403.08,650.04 1401.50,653.50" fill="none" stroke="rgb(0, 0, 0)" stroke-width="24.80" stroke-opacity="1.00" stroke-linejoin="round"/>
<path d="M426.50,1399.50 C437.30,1395.77 446.18,1392.92 447.54,1393.16 C447.64,1393.18 463.17,1399.04 464.50,1399.50" fill="none" stroke="rgb(0, 0, 0)" stroke-width="24.80" stroke-opacity="1.00" stroke-linejoin="round"/>
<path d="M943.50,1399.50 C954.30,1395.77 963.18,1392.92 964.54,1393.16 C964.64,1393.18 980.17,1399.04 981.50,1399.50" fill="none" stroke="rgb(0, 0, 0)" stroke-width="24.80" stroke-opacity="1.00" stroke-linejoin="round"/>
<path d="M1268.50,1399.50 C1279.30,1395.77 1288.18,1392.92 1289.54,1393.16 C1289.64,1393.18 1305.17,1399.04 1306.50,1399.50" fill="none" stroke="rgb(0, 0, 0)" stroke-width="24.80" stroke-opacity="1.00" stroke-linejoin="round"/>
<path d="M669.50,1395.50 C670.47,1394.97 713.47,1395.49 730.10,1395.28 C738.31,1395.15 756.83,1395.09 757.50,1395.50 C758.92,1396.41 759.60,1399.66 758.50,1400.50 C757.52,1401.20 721.05,1401.39 720.89,1401.39 C718.74,1401.40 717.91,1401.79 718.01,1402.97 C718.67,1406.36 718.36,1516.46 718.50,1517.50 C718.68,1519.32 718.40,1519.59 715.63,1520.17 C711.63,1520.93 709.86,1520.77 708.50,1519.50 C707.76,1518.75 707.37,1514.62 707.74,1510.48 C708.63,1500.60 708.55,1404.22 708.56,1403.85 C708.59,1401.75 708.17,1400.68 707.01,1400.46 C706.76,1400.42 674.16,1399.99 670.90,1399.78 C668.77,1399.69 667.67,1398.89 668.01,1397.50 C668.28,1396.59 668.77,1395.93 669.50,1395.50 Z" fill="none" stroke="rgb(0, 0, 0)" stroke-width="24.80" stroke-opacity="1.00" stroke-linejoin="round"/>
<path d="M801.50,1395.50 C805.54,1393.80 869.18,1395.34 869.50,1395.50 C870.58,1396.08 871.32,1398.98 870.50,1399.50 C869.75,1399.95 815.32,1400.42 815.01,1400.41 C812.76,1400.40 811.76,1400.80 811.54,1401.98 C811.52,1402.13 811.43,1453.81 811.43,1454.10 C811.40,1456.24 811.84,1457.31 813.01,1457.54 C813.36,1457.60 858.78,1457.32 858.91,1457.32 C861.15,1457.33 862.59,1458.06 862.99,1459.52 C863.31,1460.95 862.24,1461.67 859.98,1461.69 C842.74,1461.94 812.81,1462.39 812.50,1462.50 C811.35,1462.96 811.51,1466.69 811.58,1472.19 C811.80,1500.66 811.11,1519.39 810.50,1520.50 C809.77,1521.74 808.02,1521.85 805.00,1521.07 C804.18,1520.83 800.81,1520.02 800.50,1519.50 C800.47,1519.44 800.47,1475.03 800.49,1455.93 C800.50,1441.11 800.49,1402.04 800.23,1400.07 C799.95,1397.61 800.33,1396.05 801.50,1395.50 Z" fill="none" stroke="rgb(0, 0, 0)" stroke-width="24.80" stroke-opacity="1.00" stroke-linejoin="round"/>
<path d="M1064.50,1395.50 C1065.22,1395.06 1068.96,1395.31 1070.05,1395.36 C1070.86,1395.43 1074.11,1395.81 1074.50,1396.50 C1074.57,1396.64 1074.32,1513.99 1074.50,1514.50 C1074.94,1515.61 1078.72,1515.49 1084.18,1515.48 C1102.04,1515.65 1132.21,1516.32 1132.50,1516.50 C1133.32,1517.05 1132.58,1519.94 1131.50,1520.50 C1130.84,1520.83 1078.91,1520.38 1068.58,1519.88 C1066.13,1519.70 1063.79,1519.64 1063.50,1519.50 C1062.42,1518.94 1062.32,1517.62 1062.96,1514.92 C1063.86,1511.32 1063.67,1429.15 1063.52,1406.00 C1063.50,1401.92 1063.29,1396.31 1064.50,1395.50 Z" fill="none" stroke="rgb(0, 0, 0)" stroke-width="24.80" stroke-opacity="1.00" stroke-linejoin="round"/>
<path d="M1176.50,1395.50 C1177.22,1395.06 1180.96,1395.31 1182.05,1395.36 C1182.86,1395.43 1186.10,1395.82 1186.50,1396.50 C1186.57,1396.62 1186.64,1518.29 1186.57,1518.73 C1186.32,1519.95 1184.78,1520.94 1183.20,1520.92 C1182.11,1520.89 1178.31,1520.64 1177.50,1520.50 C1175.90,1520.18 1175.37,1519.26 1175.49,1517.14 C1175.52,1516.72 1175.50,1428.86 1175.51,1406.02 C1175.51,1401.80 1175.31,1396.30 1176.50,1395.50 Z" fill="none" stroke="rgb(0, 0, 0)" stroke-width="24.80" stroke-opacity="1.00" stroke-linejoin="round"/>
<path d="M322.50,1398.50 C322.50,1398.50 325.50,1399.50 325.50,1399.50" fill="none" stroke="rgb(0, 0, 0)" stroke-width="24.80" stroke-opacity="1.00" stroke-linejoin="round"/>
<path d="M603.50,1398.50 C603.50,1398.50 606.50,1399.50 606.50,1399.50" fill="none" stroke="rgb(0, 0, 0)" stroke-width="24.80" stroke-opacity="1.00" stroke-linejoin="round"/>
<path d="M322.50,1465.50 C320.96,1464.61 320.08,1464.41 318.83,1464.86 C316.91,1465.53 298.31,1465.74 289.46,1465.78 C287.68,1465.75 283.03,1465.63 282.92,1465.63 C280.78,1465.61 279.74,1465.16 279.51,1463.98 C279.50,1463.94 279.53,1419.18 279.68,1407.72 C279.68,1406.55 279.06,1402.64 279.12,1402.13 C279.35,1400.28 280.83,1399.29 283.00,1399.27 C298.41,1398.98 321.48,1399.49 321.50,1399.50 C322.21,1399.74 322.76,1400.50 323.50,1400.50 C323.84,1400.50 324.51,1400.17 325.50,1399.50" fill="none" stroke="rgb(0, 0, 0)" stroke-width="24.80" stroke-opacity="1.00" stroke-linejoin="round"/>
<path d="M343.50,1452.50 C345.11,1450.15 349.37,1443.85 350.50,1441.50 C352.08,1438.18 353.73,1430.92 353.29,1429.33 C353.09,1428.69 350.92,1422.21 349.50,1419.50 C348.28,1417.20 341.68,1407.53 341.50,1407.50 C341.04,1407.43 340.94,1408.32 340.50,1408.50 C340.37,1408.56 338.42,1406.19 337.50,1405.50 C337.03,1405.15 328.74,1401.11 323.55,1398.79 C320.14,1397.30 315.70,1395.79 313.04,1395.66 C307.93,1395.43 270.08,1395.52 270.04,1395.53 C268.82,1395.76 268.41,1396.75 268.45,1398.88 C268.46,1399.28 268.03,1444.46 267.95,1463.82 C268.06,1483.30 269.25,1520.11 269.50,1520.50 C270.42,1521.83 274.17,1522.21 276.67,1521.28 C278.48,1520.56 280.23,1518.67 280.45,1517.40 C280.56,1516.52 279.48,1507.62 279.45,1502.40 C279.44,1495.08 279.90,1479.02 280.24,1471.74 C280.35,1469.76 281.03,1468.70 282.58,1468.78 C283.90,1468.87 287.13,1469.59 289.19,1469.51 C294.31,1469.39 317.74,1467.67 318.50,1467.50 C319.94,1467.18 328.07,1464.11 328.35,1464.01 C331.12,1462.97 337.45,1457.97 339.46,1455.71 C341.75,1453.07 343.89,1447.64 344.24,1443.81 C344.74,1437.86 343.93,1417.67 342.48,1412.89 C342.21,1412.00 340.95,1409.44 340.50,1408.50" fill="none" stroke="rgb(0, 0, 0)" stroke-width="24.80" stroke-opacity="1.00" stroke-linejoin="round"/>
<path d="M464.50,1400.50 C457.01,1400.17 434.91,1399.33 433.50,1399.50 C430.84,1399.83 427.34,1401.32 426.50,1401.50 C425.63,1401.71 421.81,1401.28 421.50,1401.50 C421.24,1401.69 420.90,1402.36 420.50,1403.50" fill="none" stroke="rgb(0, 0, 0)" stroke-width="24.80" stroke-opacity="1.00" stroke-linejoin="round"/>
<path d="M981.50,1400.50 C974.01,1400.17 951.91,1399.33 950.50,1399.50 C947.84,1399.83 944.34,1401.32 943.50,1401.50 C942.63,1401.71 938.81,1401.28 938.50,1401.50 C938.24,1401.69 937.90,1402.36 937.50,1403.50" fill="none" stroke="rgb(0, 0, 0)" stroke-width="24.80" stroke-opacity="1.00" stroke-linejoin="round"/>
<path d="M1306.50,1400.50 C1299.01,1400.17 1276.91,1399.33 1275.50,1399.50 C1272.84,1399.83 1269.34,1401.32 1268.50,1401.50 C1267.63,1401.71 1263.81,1401.28 1263.50,1401.50 C1263.24,1401.69 1262.90,1402.36 1262.50,1403.50" fill="none" stroke="rgb(0, 0, 0)" stroke-width="24.80" stroke-opacity="1.00" stroke-linejoin="round"/>
<path d="M470.50,1402.50 C470.50,1402.50 472.50,1404.50 472.50,1404.50" fill="none" stroke="rgb(0, 0, 0)" stroke-width="24.80" stroke-opacity="1.00" stroke-linejoin="round"/>
<path d="M987.50,1402.50 C987.50,1402.50 989.50,1404.50 989.50,1404.50" fill="none" stroke="rgb(0, 0, 0)" stroke-width="24.80" stroke-opacity="1.00" stroke-linejoin="round"/>
<path d="M1312.50,1402.50 C1312.50,1402.50 1314.50,1404.50 1314.50,1404.50" fill="none" stroke="rgb(0, 0, 0)" stroke-width="24.80" stroke-opacity="1.00" stroke-linejoin="round"/>
<path d="M419.50,1404.50 C418.80,1403.35 418.21,1403.65 417.50,1405.50" fill="none" stroke="rgb(0, 0, 0)" stroke-width="24.80" stroke-opacity="1.00" stroke-linejoin="round"/>
<path d="M936.50,1404.50 C935.80,1403.35 935.21,1403.65 934.50,1405.50" fill="none" stroke="rgb(0, 0, 0)" stroke-width="24.80" stroke-opacity="1.00" stroke-linejoin="round"/>
<path d="M1261.50,1404.50 C1260.80,1403.35 1260.21,1403.65 1259.50,1405.50" fill="none" stroke="rgb(0, 0, 0)" stroke-width="24.80" stroke-opacity="1.00" stroke-linejoin="round"/>
<path d="M620.50,1408.50 C622.42,1412.70 623.47,1416.66 623.75,1421.43 C623.97,1425.82 624.05,1432.77 623.92,1436.37 C623.67,1441.24 622.81,1447.40 621.34,1449.99 C621.09,1450.42 620.81,1450.92 620.50,1451.50" fill="none" stroke="rgb(0, 0, 0)" stroke-width="24.80" stroke-opacity="1.00" stroke-linejoin="round"/>
<path d="M411.50,1409.50 C407.83,1413.19 404.87,1416.68 402.84,1420.17 C399.01,1426.89 394.53,1438.77 392.17,1448.48 C391.38,1451.83 390.69,1457.33 390.96,1459.81 C391.52,1464.60 396.24,1483.05 399.18,1489.40 C402.43,1496.34 408.81,1504.39 413.50,1508.50" fill="none" stroke="rgb(0, 0, 0)" stroke-width="24.80" stroke-opacity="1.00" stroke-linejoin="round"/>
<path d="M928.50,1409.50 C924.83,1413.19 921.87,1416.68 919.84,1420.17 C916.01,1426.89 911.53,1438.77 909.17,1448.48 C908.38,1451.83 907.69,1457.33 907.96,1459.81 C908.52,1464.60 913.24,1483.05 916.18,1489.40 C919.43,1496.34 925.81,1504.39 930.50,1508.50" fill="none" stroke="rgb(0, 0, 0)" stroke-width="24.80" stroke-opacity="1.00" stroke-linejoin="round"/>
<path d="M1253.50,1409.50 C1249.83,1413.19 1246.87,1416.68 1244.84,1420.17 C1241.01,1426.89 1236.53,1438.77 1234.17,1448.48 C1233.38,1451.83 1232.69,1457.33 1232.96,1459.81 C1233.52,1464.60 1238.24,1483.05 1241.18,1489.40 C1244.43,1496.34 1250.81,1504.39 1255.50,1508.50" fill="none" stroke="rgb(0, 0, 0)" stroke-width="24.80" stroke-opacity="1.00" stroke-linejoin="round"/>
<path d="M412.50,1410.50 C411.23,1412.97 408.06,1419.15 406.17,1422.85 C403.70,1427.93 402.57,1431.21 402.50,1434.50 C402.49,1435.14 401.46,1441.64 401.50,1445.10 C401.78,1464.78 402.89,1485.48 404.29,1489.49 C406.13,1494.49 412.67,1504.67 414.50,1507.50" fill="none" stroke="rgb(0, 0, 0)" stroke-width="24.80" stroke-opacity="1.00" stroke-linejoin="round"/>
<path d="M929.50,1410.50 C928.23,1412.97 925.06,1419.15 923.17,1422.85 C920.70,1427.93 919.57,1431.21 919.50,1434.50 C919.49,1435.14 918.46,1441.64 918.50,1445.10 C918.78,1464.78 919.89,1485.48 921.29,1489.49 C923.13,1494.49 929.67,1504.67 931.50,1507.50" fill="none" stroke="rgb(0, 0, 0)" stroke-width="24.80" stroke-opacity="1.00" stroke-linejoin="round"/>
<path d="M1254.50,1410.50 C1253.23,1412.97 1250.06,1419.15 1248.17,1422.85 C1245.70,1427.93 1244.57,1431.21 1244.50,1434.50 C1244.49,1435.14 1243.46,1441.64 1243.50,1445.10 C1243.78,1464.78 1244.89,1485.48 1246.29,1489.49 C1248.13,1494.49 1254.67,1504.67 1256.50,1507.50" fill="none" stroke="rgb(0, 0, 0)" stroke-width="24.80" stroke-opacity="1.00" stroke-linejoin="round"/>
<path d="M481.50,1411.50 C485.28,1415.27 488.27,1418.79 489.99,1422.12 C492.83,1427.71 498.33,1443.81 499.58,1449.99 C500.34,1453.88 500.63,1461.09 500.16,1464.90 C499.28,1471.75 494.06,1486.20 489.96,1493.71 C485.83,1501.17 480.10,1506.94 478.50,1508.50" fill="none" stroke="rgb(0, 0, 0)" stroke-width="24.80" stroke-opacity="1.00" stroke-linejoin="round"/>
<path d="M998.50,1411.50 C1002.28,1415.27 1005.27,1418.79 1006.99,1422.12 C1009.83,1427.71 1015.33,1443.81 1016.58,1449.99 C1017.34,1453.88 1017.63,1461.09 1017.16,1464.90 C1016.28,1471.75 1011.06,1486.20 1006.96,1493.71 C1002.83,1501.17 997.10,1506.94 995.50,1508.50" fill="none" stroke="rgb(0, 0, 0)" stroke-width="24.80" stroke-opacity="1.00" stroke-linejoin="round"/>
<path d="M1323.50,1411.50 C1327.28,1415.27 1330.27,1418.79 1331.99,1422.12 C1334.83,1427.71 1340.33,1443.81 1341.58,1449.99 C1342.34,1453.88 1342.63,1461.09 1342.16,1464.90 C1341.28,1471.75 1336.06,1486.20 1331.96,1493.71 C1327.83,1501.17 1322.10,1506.94 1320.50,1508.50" fill="none" stroke="rgb(0, 0, 0)" stroke-width="24.80" stroke-opacity="1.00" stroke-linejoin="round"/>
<path d="M480.50,1412.50 C485.42,1423.75 488.88,1432.60 490.01,1442.12 C490.86,1449.61 490.53,1465.78 489.85,1473.23 C489.46,1477.40 488.07,1485.71 486.88,1489.60 C484.33,1497.73 480.98,1502.95 477.50,1507.50" fill="none" stroke="rgb(0, 0, 0)" stroke-width="24.80" stroke-opacity="1.00" stroke-linejoin="round"/>
<path d="M997.50,1412.50 C1002.42,1423.75 1005.88,1432.60 1007.01,1442.12 C1007.86,1449.61 1007.53,1465.78 1006.85,1473.23 C1006.46,1477.40 1005.07,1485.71 1003.88,1489.60 C1001.33,1497.73 997.98,1502.95 994.50,1507.50" fill="none" stroke="rgb(0, 0, 0)" stroke-width="24.80" stroke-opacity="1.00" stroke-linejoin="round"/>
<path d="M1322.50,1412.50 C1327.42,1423.75 1330.88,1432.60 1332.01,1442.12 C1332.86,1449.61 1332.53,1465.78 1331.85,1473.23 C1331.46,1477.40 1330.07,1485.71 1328.88,1489.60 C1326.33,1497.73 1322.98,1502.95 1319.50,1507.50" fill="none" stroke="rgb(0, 0, 0)" stroke-width="24.80" stroke-opacity="1.00" stroke-linejoin="round"/>
<path d="M606.50,1462.50 C606.58,1474.66 606.86,1481.94 607.00,1482.50 C607.42,1484.14 610.70,1487.72 613.46,1492.33 C617.60,1499.65 625.11,1512.98 628.47,1519.00 C629.46,1520.77 634.35,1523.51 638.78,1525.43 C642.49,1526.98 647.35,1529.02 648.50,1529.50" fill="none" stroke="rgb(0, 0, 0)" stroke-width="24.80" stroke-opacity="1.00" stroke-linejoin="round"/>
<path d="M628.50,1519.50 C627.45,1520.23 626.79,1520.56 626.50,1520.50 C626.17,1520.42 597.92,1468.78 597.43,1468.03 C596.65,1466.90 595.15,1466.39 593.01,1466.37 C592.86,1466.37 562.07,1466.37 561.94,1466.37 C559.78,1466.39 558.73,1466.86 558.49,1468.06 C558.44,1468.39 558.54,1518.21 558.50,1518.50 C558.22,1520.06 557.27,1520.63 555.20,1520.49 C553.65,1520.35 550.31,1520.61 549.50,1520.50 C547.95,1520.26 547.37,1519.26 547.49,1517.18 C547.52,1516.77 547.64,1429.77 547.78,1408.03 C547.75,1405.81 546.67,1397.51 546.74,1397.25 C547.09,1396.06 548.88,1395.37 551.02,1395.37 C565.86,1395.37 598.47,1396.50 598.50,1396.50 C600.89,1396.71 615.77,1403.98 620.47,1407.09 C623.56,1409.18 627.42,1413.84 629.12,1417.59 C630.79,1421.37 632.45,1426.43 632.55,1428.75 C632.63,1430.99 631.37,1437.90 630.45,1439.96 C629.04,1443.05 624.04,1448.98 621.44,1451.57 C618.61,1454.36 613.27,1458.81 610.87,1460.17 C607.52,1462.00 594.99,1462.62 582.26,1462.78 C572.71,1462.81 559.60,1462.54 559.50,1462.50 C558.45,1462.02 558.51,1458.20 558.52,1452.88 C558.42,1434.97 558.44,1403.31 558.43,1402.99 C558.40,1400.76 558.82,1399.75 560.01,1399.52 C560.02,1399.52 602.29,1399.43 602.50,1399.50 C603.21,1399.74 603.76,1400.50 604.50,1400.50 C604.85,1400.50 605.51,1400.17 606.50,1399.50" fill="none" stroke="rgb(0, 0, 0)" stroke-width="24.80" stroke-opacity="1.00" stroke-linejoin="round"/>
<path d="M425.50,1515.50 C426.49,1515.77 432.28,1517.28 437.50,1517.50 C440.17,1517.60 447.40,1517.44 453.55,1517.14 C457.22,1516.92 463.52,1516.59 466.50,1515.50" fill="none" stroke="rgb(0, 0, 0)" stroke-width="24.80" stroke-opacity="1.00" stroke-linejoin="round"/>
<path d="M942.50,1515.50 C943.49,1515.77 949.28,1517.28 954.50,1517.50 C957.17,1517.60 964.40,1517.44 970.55,1517.14 C974.22,1516.92 980.52,1516.59 983.50,1515.50" fill="none" stroke="rgb(0, 0, 0)" stroke-width="24.80" stroke-opacity="1.00" stroke-linejoin="round"/>
<path d="M1267.50,1515.50 C1268.49,1515.77 1274.28,1517.28 1279.50,1517.50 C1282.17,1517.60 1289.40,1517.44 1295.55,1517.14 C1299.22,1516.92 1305.52,1516.59 1308.50,1515.50" fill="none" stroke="rgb(0, 0, 0)" stroke-width="24.80" stroke-opacity="1.00" stroke-linejoin="round"/>
<path d="M424.50,1516.50 C426.88,1517.65 434.44,1521.34 436.69,1522.11 C440.47,1523.37 448.53,1523.57 452.31,1522.50 C454.57,1521.84 462.12,1518.54 464.50,1517.50" fill="none" stroke="rgb(0, 0, 0)" stroke-width="24.80" stroke-opacity="1.00" stroke-linejoin="round"/>
<path d="M941.50,1516.50 C943.88,1517.65 951.44,1521.34 953.69,1522.11 C957.47,1523.37 965.53,1523.57 969.31,1522.50 C971.57,1521.84 979.12,1518.54 981.50,1517.50" fill="none" stroke="rgb(0, 0, 0)" stroke-width="24.80" stroke-opacity="1.00" stroke-linejoin="round"/>
<path d="M1266.50,1516.50 C1268.88,1517.65 1276.44,1521.34 1278.69,1522.11 C1282.47,1523.37 1290.53,1523.57 1294.31,1522.50 C1296.57,1521.84 1304.12,1518.54 1306.50,1517.50" fill="none" stroke="rgb(0, 0, 0)" stroke-width="24.80" stroke-opacity="1.00" stroke-linejoin="round"/>
</g>
</svg>
