<?xml version="1.0" encoding="UTF-8" standalone="no"?>
<!DOCTYPE svg PUBLIC "-//W3C//DTD SVG 1.1//EN" "http://www.w3.org/Graphics/SVG/1.1/DTD/svg11.dtd">
<svg width="1600.00" height="1600.00" viewBox="0.00 0.00 1600.00 1600.00" xmlns="http://www.w3.org/2000/svg" xmlns:xlink="http://www.w3.org/1999/xlink">
<g stroke-linecap="round" id="Layer_2">
<path d="M461.65,862.87 C460.88,863.24 460.10,863.15 459.43,862.27 C457.15,859.28 452.43,845.75 449.29,834.87 C447.33,827.77 444.91,814.83 443.33,804.78 C442.19,796.66 440.94,780.72 440.54,773.19 C440.05,760.53 441.77,726.40 443.30,714.19 C445.93,695.53 450.29,673.43 454.52,656.83 C458.29,643.11 466.81,618.50 473.40,602.59 C478.59,590.70 489.30,569.98 498.21,554.67 C505.30,542.91 519.56,522.38 530.65,507.87 C535.09,502.23 545.36,490.03 548.92,486.13 C554.22,480.53 566.56,468.17 569.89,465.18 C573.39,462.04 586.65,451.33 594.44,445.82 C600.41,441.67 608.78,436.96 611.38,435.85" fill="none" stroke="rgb(0, 0, 0)" stroke-width="17.00" stroke-opacity="1.00" stroke-linejoin="round"/>
<path d="M609.59,433.55 C607.87,432.03 602.27,429.96 598.92,428.72 C596.25,427.71 586.07,423.50 582.54,422.00 C574.81,418.58 561.55,412.69 556.04,410.22" fill="none" stroke="rgb(0, 0, 0)" stroke-width="17.00" stroke-opacity="1.00" stroke-linejoin="round"/>
<path d="M555.94,409.83 C560.83,405.79 570.60,400.71 580.82,396.01 C586.99,393.25 599.91,388.47 608.97,385.56 C613.28,384.25 629.21,380.42 636.29,379.19 C644.81,377.83 658.81,376.51 664.15,376.22 C678.60,375.55 704.40,377.39 719.92,379.71 C728.32,381.20 742.14,384.42 746.08,385.55 C759.31,389.33 783.96,399.87 789.38,403.30" fill="none" stroke="rgb(0, 0, 0)" stroke-width="17.00" stroke-opacity="1.00" stroke-linejoin="round"/>
<path d="M789.61,404.64 C792.04,402.35 806.97,393.34 812.98,390.04 C821.77,385.42 864.01,366.52 871.00,363.95 C877.54,361.60 890.96,357.10 898.25,354.84 C904.60,353.07 919.95,349.27 925.57,348.16 C933.52,346.72 950.66,344.08 956.95,343.49 C964.11,342.83 975.45,342.48 985.77,342.48 C999.55,342.76 1027.89,345.49 1044.64,348.15 C1052.21,349.51 1066.96,352.54 1073.95,354.24 C1102.83,361.89 1126.96,373.12 1127.66,373.45" fill="none" stroke="rgb(0, 0, 0)" stroke-width="17.00" stroke-opacity="1.00" stroke-linejoin="round"/>
<path d="M1127.39,373.35 C1099.82,386.60 1058.10,406.27 1043.96,412.69 C1035.74,416.28 1020.35,422.93 1013.18,425.99 C1011.87,426.55 1009.44,427.59 1008.32,428.06 C1006.78,428.71 1004.28,429.75 1003.33,430.15" fill="none" stroke="rgb(0, 0, 0)" stroke-width="17.00" stroke-opacity="1.00" stroke-linejoin="round"/>
<path d="M1007.55,431.38 C1014.43,433.66 1020.89,436.76 1028.87,441.24 C1034.91,444.78 1047.32,452.47 1052.89,456.46 C1055.94,458.67 1069.34,469.66 1072.36,472.52 C1074.93,474.95 1085.52,485.91 1090.99,492.41 C1094.44,496.58 1103.61,508.59 1108.28,515.73 C1111.30,520.42 1118.67,533.81 1120.66,538.47 C1126.22,551.61 1130.86,568.95 1131.51,571.42" fill="none" stroke="rgb(0, 0, 0)" stroke-width="17.00" stroke-opacity="1.00" stroke-linejoin="round"/>
<path d="M1128.84,572.16 C1116.43,568.35 1091.13,560.01 1078.24,555.50 C1074.40,554.25 1066.57,551.77 1062.58,550.53 C1061.68,550.27 1060.78,550.00 1059.87,549.74" fill="none" stroke="rgb(0, 0, 0)" stroke-width="17.00" stroke-opacity="1.00" stroke-linejoin="round"/>
<path d="M1060.92,551.58 C1064.94,554.53 1077.05,566.13 1081.38,571.16 C1083.94,574.13 1096.22,589.50 1100.72,595.23 C1104.86,600.71 1114.44,614.49 1116.44,617.73 C1119.71,623.00 1125.66,634.24 1128.32,640.43 C1131.25,647.40 1133.69,657.11 1135.50,667.95 C1136.10,671.78 1136.55,675.66 1136.93,679.58" fill="none" stroke="rgb(0, 0, 0)" stroke-width="17.00" stroke-opacity="1.00" stroke-linejoin="round"/>
<path d="M1134.65,682.52 C1134.04,681.80 1128.73,677.39 1125.61,674.80 C1122.23,672.02 1113.88,665.21 1113.48,664.91 C1113.23,664.72 1112.86,664.45 1112.37,664.12" fill="none" stroke="rgb(0, 0, 0)" stroke-width="17.00" stroke-opacity="1.00" stroke-linejoin="round"/>
<path d="M1113.25,667.62 C1114.01,668.93 1115.61,675.59 1115.90,679.13 C1116.52,687.25 1116.23,700.56 1115.56,707.98 C1114.72,716.99 1109.54,751.96 1107.98,762.08" fill="none" stroke="rgb(0, 0, 0)" stroke-width="17.00" stroke-opacity="1.00" stroke-linejoin="round"/>
<path d="M521.45,873.49 C520.26,869.39 513.53,836.26 511.52,821.87 C510.32,812.48 507.01,775.40 505.58,759.01 C505.26,755.80 504.86,751.75 504.77,750.89" fill="none" stroke="rgb(0, 0, 0)" stroke-width="17.00" stroke-opacity="1.00" stroke-linejoin="round"/>
<path d="M497.92,771.81 C498.56,768.55 502.34,754.39 505.22,745.13 C509.46,732.30 520.75,705.94 527.10,692.12 C530.67,684.77 537.63,671.41 541.22,664.68 C545.02,657.98 553.26,644.31 555.07,641.68 C555.97,640.38 558.42,636.96 559.32,635.70" fill="none" stroke="rgb(0, 0, 0)" stroke-width="17.00" stroke-opacity="1.00" stroke-linejoin="round"/>
<path d="M533.99,664.73 C538.25,658.65 546.42,650.17 552.25,644.99 C559.89,638.43 568.68,631.77 576.81,626.29 C582.30,622.65 595.33,615.31 602.36,611.69 C615.83,605.04 637.69,596.65 651.65,592.93 C665.89,589.48 688.46,586.40 703.82,585.88 C712.00,585.73 722.90,586.20 731.85,587.24 C742.36,588.61 752.09,590.31 759.79,592.14 C766.38,593.84 780.47,598.07 787.54,600.44 C794.44,602.97 807.71,608.28 814.94,611.40 C831.48,618.89 848.12,628.26 855.29,632.94 C858.18,634.86 861.71,637.54 862.96,638.53" fill="none" stroke="rgb(0, 0, 0)" stroke-width="17.00" stroke-opacity="1.00" stroke-linejoin="round"/>
<path d="M822.24,566.68 C823.28,568.33 844.01,602.45 852.18,615.79 C856.71,623.33 861.52,631.68 862.53,633.47" fill="none" stroke="rgb(0, 0, 0)" stroke-width="17.00" stroke-opacity="1.00" stroke-linejoin="round"/>
<path d="M821.83,565.87 C825.46,565.15 830.12,565.32 833.54,565.82 C837.68,566.45 852.72,570.38 859.72,572.94 C867.00,575.63 881.55,582.88 886.44,585.92 C892.62,589.80 901.43,596.17 906.45,600.31 C912.08,604.98 920.37,612.99 927.49,620.59 C932.86,626.50 936.21,630.67 939.04,634.76" fill="none" stroke="rgb(0, 0, 0)" stroke-width="17.00" stroke-opacity="1.00" stroke-linejoin="round"/>
<path d="M963.89,571.51 C963.45,574.38 950.24,607.65 949.03,610.44 C946.61,615.88 941.71,626.85 940.62,629.67" fill="none" stroke="rgb(0, 0, 0)" stroke-width="17.00" stroke-opacity="1.00" stroke-linejoin="round"/>
<path d="M1007.94,630.60 C1002.23,622.72 981.93,596.53 972.57,584.24 C970.28,581.23 965.33,574.77 965.11,574.49 C964.89,574.22 964.43,573.66 963.71,572.81" fill="none" stroke="rgb(0, 0, 0)" stroke-width="17.00" stroke-opacity="1.00" stroke-linejoin="round"/>
<path d="M1037.16,569.35 C1038.43,572.38 1039.42,578.11 1039.58,580.22 C1039.79,583.11 1039.64,589.49 1039.15,592.31 C1038.04,598.48 1033.80,609.36 1031.82,612.92 C1026.70,622.00 1018.26,628.52 1015.67,630.24 C1014.27,631.17 1012.49,631.99 1010.47,632.68 C1010.07,632.81 1009.53,632.97 1008.85,633.17" fill="none" stroke="rgb(0, 0, 0)" stroke-width="17.00" stroke-opacity="1.00" stroke-linejoin="round"/>
<path d="M1035.63,617.39 C1040.17,618.48 1048.16,622.66 1055.18,627.62 C1061.44,632.18 1067.37,636.81 1074.71,643.70 C1083.98,652.53 1089.75,658.59 1092.73,663.64 C1093.97,665.82 1096.25,672.94 1096.11,675.98 C1095.91,679.00 1093.81,684.35 1091.73,685.93 C1089.63,687.43 1082.81,688.35 1079.29,687.63 C1074.78,686.65 1058.52,678.13 1055.81,676.43 C1054.09,675.36 1037.32,664.48 1030.81,660.43 C1024.04,656.40 1012.82,651.13 1006.01,648.85 C1000.44,646.99 988.06,644.59 982.96,643.26 C979.95,642.46 976.31,640.84 974.85,639.43 C973.42,637.99 971.29,633.75 970.54,631.40 C969.89,629.23 970.79,622.89 971.72,620.22 C972.02,619.41 973.72,616.95 974.44,616.41 C975.95,615.33 984.00,612.64 986.66,612.34 C988.34,612.15 992.04,612.33 993.81,612.57 C994.18,612.63 994.55,612.71 994.90,612.82" fill="none" stroke="rgb(0, 0, 0)" stroke-width="17.00" stroke-opacity="1.00" stroke-linejoin="round"/>
<path d="M565.16,686.76 C565.50,688.42 566.39,690.97 567.20,692.28 C568.24,693.91 572.80,695.80 575.67,696.12 C578.28,696.37 585.26,694.33 588.09,693.24 C593.36,691.15 597.41,689.29 599.76,687.65 C605.16,683.76 618.45,674.30 622.77,671.99 C627.21,669.64 641.27,664.12 647.60,662.58 C653.31,661.22 667.99,660.71 672.78,661.18 C673.10,661.21 686.27,662.94 694.29,664.32 C700.23,665.24 715.55,665.88 717.19,665.79 C718.47,665.72 726.21,664.38 728.93,663.32 C731.58,662.27 736.63,658.31 737.70,656.78 C738.06,656.23 739.28,653.45 739.36,653.07 C739.71,651.24 739.37,648.69 738.49,646.49 C737.05,643.03 734.14,639.63 733.13,638.28 C730.40,634.68 719.31,626.59 714.36,624.03 C708.44,620.99 696.60,616.56 691.71,615.15 C686.43,613.64 674.52,612.32 669.17,612.70 C663.48,613.13 648.44,615.95 640.53,618.46 C633.41,620.75 624.87,624.49 615.68,629.20 C606.76,633.93 601.25,637.67 591.50,645.31 C585.99,649.66 575.03,660.04 572.40,664.27 C571.12,666.36 569.01,671.27 567.59,675.04 C566.70,677.54 566.21,683.95 566.56,686.68 C566.81,688.34 567.83,690.54 568.72,691.13 C572.50,693.46 577.47,693.74 578.41,693.66" fill="none" stroke="rgb(0, 0, 0)" stroke-width="17.00" stroke-opacity="1.00" stroke-linejoin="round"/>
<path d="M640.49,953.96 C640.32,953.99 640.05,954.04 639.70,954.11 C636.05,954.73 631.07,954.84 629.09,954.69 C626.18,954.45 620.00,952.51 616.91,950.42 C612.48,947.35 603.35,937.80 598.59,930.89 C593.97,924.02 585.13,910.66 583.05,906.14 C581.60,902.95 576.50,890.15 573.62,882.25 C572.06,877.79 567.69,863.64 566.06,856.37 C564.70,850.22 563.15,839.01 562.34,829.46 C561.82,822.12 562.07,811.23 562.67,801.62 C563.45,792.39 564.81,782.17 566.48,775.54 C568.24,768.89 571.95,757.37 574.52,752.07 C578.41,744.08 585.24,732.59 590.16,726.22 C595.48,719.35 602.13,713.26 610.02,707.79 C618.75,701.91 624.28,698.77 632.57,695.01 C640.89,691.45 653.48,686.56 658.80,685.29 C664.55,683.93 683.31,681.04 688.23,680.60 C694.59,680.05 705.36,680.22 715.60,681.81 C728.70,683.96 733.89,684.74 741.44,687.20 C749.87,690.04 757.35,693.77 767.99,699.82 C770.47,701.27 785.90,713.72 787.21,715.06 C789.01,716.92 802.86,732.62 806.65,738.28 C811.00,744.86 816.95,755.28 820.13,763.08 C822.15,768.09 825.99,782.91 827.82,790.10 C830.84,802.08 832.65,810.25 833.15,816.96 C833.53,822.79 831.86,839.30 831.03,847.10 C829.65,858.28 828.36,865.77 825.61,874.26 C824.96,876.26 822.78,883.80 821.96,885.86 C821.02,888.25 814.92,901.31 809.55,910.04 C805.03,917.14 798.13,925.52 793.72,930.84 C791.00,934.10 784.61,941.64 784.27,941.97 C782.30,943.83 768.58,948.62 766.37,949.17 C765.66,949.35 750.97,951.61 743.10,951.28 C741.39,951.20 722.01,949.97 713.68,949.52 C703.22,949.04 699.26,949.50 687.13,951.44 C683.90,951.92 676.82,952.09 674.12,952.68 C667.30,954.24 661.17,954.84 646.56,956.87 C640.66,957.60 637.18,957.70 634.89,956.58 C632.04,955.18 626.40,952.41 621.87,950.78 C620.14,950.06 617.82,948.00 615.88,946.08" fill="none" stroke="rgb(0, 0, 0)" stroke-width="17.00" stroke-opacity="1.00" stroke-linejoin="round"/>
<path d="M877.32,888.42 C876.56,888.50 872.91,883.18 871.82,880.93 C869.47,875.98 866.00,863.05 864.85,854.85 C863.68,846.05 863.23,832.37 863.53,825.58 C863.75,820.98 865.39,805.48 867.11,794.79 C868.49,787.10 872.19,771.31 873.86,766.02 C876.11,758.98 883.03,743.10 884.63,739.86 C887.67,733.77 894.04,723.64 898.17,718.05 C900.12,715.42 909.99,703.22 914.65,698.72 C923.74,690.06 931.77,682.79 937.32,679.66 C943.58,676.16 953.65,672.11 963.69,669.16 C971.85,666.91 984.17,664.88 990.31,665.03 C996.12,665.21 1011.63,668.29 1016.74,670.31 C1019.60,671.45 1035.02,679.73 1041.50,683.24 C1047.21,686.41 1059.81,696.93 1061.65,698.96 C1063.35,700.84 1074.68,714.83 1078.65,720.12 C1084.22,727.93 1087.59,733.12 1093.06,742.45 C1097.14,749.45 1107.10,766.91 1108.71,770.45 C1109.43,772.06 1114.16,787.28 1116.19,793.76 C1119.78,805.44 1120.91,811.15 1122.08,822.33 C1123.08,833.64 1123.66,844.13 1123.26,851.37 C1122.80,859.54 1121.14,873.19 1119.73,880.37 C1118.14,888.41 1114.16,900.36 1111.34,904.98 C1109.81,907.44 1103.99,914.57 1103.38,915.24 C1100.70,918.15 1089.99,926.62 1081.52,932.92 C1075.03,937.66 1061.93,944.99 1056.20,946.84 C1050.79,948.47 1038.64,952.31 1031.17,954.04 C1024.91,955.44 994.75,959.76 991.85,959.94 C987.63,960.17 970.00,956.05 967.87,955.44 C964.52,954.47 959.52,952.63 953.14,950.61 C949.05,949.26 944.65,946.97 942.72,945.20 C938.15,940.94 930.99,935.55 930.52,935.15 C930.21,934.89 929.74,934.46 929.13,933.86" fill="none" stroke="rgb(0, 0, 0)" stroke-width="17.00" stroke-opacity="1.00" stroke-linejoin="round"/>
<path d="M880.55,979.71 C882.60,980.62 883.99,981.02 884.93,980.80 C886.35,980.46 891.00,978.38 895.37,976.10 C898.96,974.19 912.19,963.82 914.65,960.64 C917.50,956.90 926.06,941.94 928.37,936.02 C930.87,929.53 933.53,915.07 933.11,912.38 C932.64,909.57 929.92,901.29 929.49,900.27 C928.47,897.90 925.88,894.38 924.17,892.81 C921.99,890.85 917.00,887.12 914.09,885.83 C911.88,884.87 906.05,882.94 904.32,882.69 C901.92,882.37 899.09,882.45 895.97,882.86 C892.98,883.25 876.19,889.49 871.95,892.16 C866.05,895.90 857.22,903.19 853.38,907.39 C849.53,911.62 843.34,921.96 841.25,928.52 C839.94,932.68 838.29,939.29 838.04,941.87 C837.73,945.60 837.93,951.10 838.76,953.51" fill="none" stroke="rgb(0, 0, 0)" stroke-width="17.00" stroke-opacity="1.00" stroke-linejoin="round"/>
<path d="M851.25,955.75 C852.33,951.90 861.01,931.74 862.57,929.48 C864.81,926.32 868.06,922.03 870.19,920.15 C871.28,919.20 872.14,918.99 873.04,919.21 C873.66,921.28 872.25,927.28 870.32,931.29 C869.18,933.60 859.48,945.74 856.93,949.14 C855.29,951.36 853.04,954.91 852.95,955.29" fill="none" stroke="rgb(0, 0, 0)" stroke-width="17.00" stroke-opacity="1.00" stroke-linejoin="round"/>
<path d="M870.62,962.49 C872.06,960.39 887.47,943.68 888.60,942.70 C891.24,940.42 897.43,937.64 898.02,937.56 C899.27,937.41 901.79,937.77 902.33,938.18 C902.77,938.58 903.17,940.98 902.98,942.10 C902.70,943.48 898.05,948.47 894.93,950.75 C891.48,953.23 876.86,961.05 871.25,964.65 C870.89,964.88 870.48,965.19 870.02,965.58" fill="none" stroke="rgb(0, 0, 0)" stroke-width="17.00" stroke-opacity="1.00" stroke-linejoin="round"/>
<path d="M806.09,1111.57 C802.55,1111.83 789.48,1111.84 783.94,1111.27 C781.25,1110.99 760.41,1107.49 756.26,1106.55 C750.16,1105.15 736.78,1099.59 730.78,1096.37 C723.16,1092.15 718.10,1088.87 709.61,1082.59 C705.52,1079.50 701.29,1076.08 699.71,1074.29 C697.54,1071.80 694.09,1067.18 692.53,1064.66 C690.78,1061.77 688.96,1057.12 688.17,1053.58 C687.45,1050.20 686.88,1043.95 687.14,1040.79 C687.47,1037.27 689.38,1030.04 691.09,1026.38 C692.11,1024.24 695.60,1018.79 697.41,1016.79 C699.22,1014.81 702.87,1011.66 705.61,1009.69 C710.38,1006.32 724.64,1000.98 729.71,999.50 C735.74,997.76 750.10,996.88 756.20,997.89 C762.86,999.11 775.87,1004.36 779.18,1005.50 C783.58,1007.00 799.81,1010.82 807.51,1012.57 C811.58,1013.46 827.45,1013.75 832.04,1012.96 C845.59,1010.48 880.49,1004.21 885.38,1003.83 C886.18,1003.78 892.85,1003.88 895.03,1004.06 C897.49,1004.28 901.63,1005.54 904.94,1007.61 C906.03,1008.30 909.87,1011.56 911.34,1013.06 C913.05,1014.84 916.89,1019.99 917.77,1022.79 C918.75,1026.00 919.03,1030.80 918.92,1034.00 C918.70,1039.33 918.38,1042.01 917.36,1045.29 C917.12,1046.06 914.63,1055.11 913.71,1056.92 C911.33,1061.55 903.94,1072.76 898.57,1079.15 C891.71,1087.20 881.88,1096.15 878.72,1099.02 C874.16,1103.05 869.14,1107.10 866.07,1108.98 C863.26,1110.67 858.82,1112.39 854.69,1113.46 C848.92,1114.91 835.37,1115.87 829.79,1115.52 C822.76,1114.91 808.43,1113.86 800.63,1113.50 C795.32,1113.28 793.05,1113.27 791.09,1113.26" fill="none" stroke="rgb(0, 0, 0)" stroke-width="17.00" stroke-opacity="1.00" stroke-linejoin="round"/>
<path d="M692.74,1042.05 C692.67,1041.46 713.33,1044.73 716.26,1045.09 C723.50,1046.10 738.57,1048.18 746.38,1049.24 C752.22,1049.93 789.93,1052.80 805.24,1053.75 C819.18,1054.14 858.81,1055.91 862.76,1055.82 C865.08,1055.75 866.78,1055.48 867.44,1055.07 C868.78,1054.13 874.07,1047.49 874.58,1046.88 C878.90,1041.56 882.94,1030.30 886.60,1022.04 C888.65,1017.41 890.99,1012.85 893.20,1009.08" fill="none" stroke="rgb(0, 0, 0)" stroke-width="17.00" stroke-opacity="1.00" stroke-linejoin="round"/>
<path d="M701.34,1072.20 C704.08,1070.54 715.50,1067.52 721.11,1066.92 C725.59,1066.46 742.72,1067.31 746.65,1067.77 C753.25,1068.56 762.08,1070.40 771.30,1073.74 C774.91,1075.11 782.32,1077.98 784.59,1079.14 C785.11,1079.41 801.29,1088.78 804.91,1092.26 C809.01,1096.25 816.84,1106.29 817.24,1106.76 C820.44,1110.19 821.84,1112.18 821.97,1112.49" fill="none" stroke="rgb(0, 0, 0)" stroke-width="17.00" stroke-opacity="1.00" stroke-linejoin="round"/>
<path d="M530.54,879.48 C526.01,878.79 522.42,877.95 519.06,876.30 C515.41,874.49 494.89,866.19 493.99,865.95 C490.53,865.08 472.97,864.95 468.90,865.71 C462.05,867.03 447.37,872.35 441.48,875.75 C437.94,877.83 433.24,882.44 431.19,884.50 C426.70,889.06 419.98,898.61 416.61,904.57 C413.42,910.28 408.53,923.67 407.03,929.89 C405.48,936.57 402.84,950.94 402.58,957.40 C402.34,964.12 404.37,976.41 406.81,985.53 C408.45,991.37 409.80,995.36 411.06,997.83 C412.24,1000.08 414.62,1002.93 418.20,1006.60 C421.03,1009.40 426.11,1013.38 429.23,1015.24 C434.96,1018.61 451.10,1023.64 454.49,1024.19 C455.49,1024.35 464.04,1025.30 467.95,1024.89 C474.22,1024.19 486.52,1020.57 493.95,1016.86 C503.02,1012.20 508.81,1008.78 516.33,1002.77 C521.81,998.37 529.25,989.96 534.03,983.72 C539.84,976.00 553.88,955.49 556.48,951.16" fill="none" stroke="rgb(0, 0, 0)" stroke-width="17.00" stroke-opacity="1.00" stroke-linejoin="round"/>
<path d="M480.33,892.07 C478.81,892.73 460.62,904.37 458.20,906.41 C452.47,911.31 444.05,922.45 440.65,928.46 C438.09,933.01 435.73,938.37 435.15,941.19 C434.59,944.14 434.54,948.95 435.19,950.94 C435.41,951.58 436.75,953.93 437.31,954.49 C439.61,956.72 445.38,958.25 447.63,958.29 C451.01,958.31 456.90,956.71 458.52,955.30 C457.84,956.13 455.25,961.62 454.36,964.91 C453.92,966.54 453.37,971.15 453.46,973.17 C453.59,975.62 455.31,981.40 457.62,983.41 C459.92,985.37 465.30,986.96 467.42,987.16 C470.46,987.42 476.20,986.57 479.92,984.87 C483.11,983.38 487.08,979.86 489.05,977.56 C491.67,974.43 497.61,962.93 499.84,956.94 C501.43,952.66 507.21,934.91 508.88,929.72" fill="none" stroke="rgb(0, 0, 0)" stroke-width="17.00" stroke-opacity="1.00" stroke-linejoin="round"/>
<path d="M523.05,995.04 C523.02,997.58 523.69,1000.58 525.65,1006.43 C529.86,1018.24 534.40,1029.47 537.70,1035.83 C541.75,1043.51 548.01,1053.38 552.82,1059.59 C556.74,1064.64 567.60,1076.06 572.60,1080.99 C580.25,1088.28 588.57,1095.61 593.89,1099.70 C599.26,1103.80 609.28,1110.22 618.47,1115.62 C632.73,1123.52 658.75,1136.08 672.83,1141.65 C683.44,1145.70 717.63,1156.94 727.59,1159.67 C734.40,1161.41 748.14,1164.70 755.20,1166.17 C763.47,1167.72 779.40,1169.34 784.41,1169.67 C805.03,1170.79 818.26,1170.72 842.53,1168.86 C858.51,1167.21 887.02,1160.88 901.28,1157.80 C909.29,1156.15 922.04,1152.33 928.89,1149.55 C935.85,1146.71 947.43,1140.96 956.19,1135.90 C964.64,1130.99 972.44,1126.21 978.04,1121.84 C984.38,1116.82 998.17,1105.62 1003.14,1101.19 C1009.93,1094.90 1018.50,1086.33 1024.27,1079.80 C1032.10,1070.63 1051.50,1046.07 1061.31,1033.77 C1068.26,1025.02 1075.28,1015.43 1078.56,1009.58 C1082.48,1002.47 1097.66,968.16 1101.52,957.57 C1103.83,950.83 1107.56,937.64 1108.79,931.00 C1110.49,921.68 1110.93,915.14 1110.83,914.51 C1110.78,914.24 1110.62,913.68 1110.36,912.84" fill="none" stroke="rgb(0, 0, 0)" stroke-width="17.00" stroke-opacity="1.00" stroke-linejoin="round"/>
<path d="M716.26,1161.18 C715.38,1165.47 714.34,1169.75 712.95,1174.04 C711.57,1178.08 708.78,1186.21 707.37,1190.30 C707.08,1191.13 706.79,1191.97 706.50,1192.80" fill="none" stroke="rgb(0, 0, 0)" stroke-width="17.00" stroke-opacity="1.00" stroke-linejoin="round"/>
<path d="M903.83,1160.94 C903.79,1167.86 901.51,1182.85 900.19,1187.61 C899.52,1190.00 896.50,1198.22 895.38,1200.71 C891.09,1210.22 883.48,1222.23 882.11,1223.95" fill="none" stroke="rgb(0, 0, 0)" stroke-width="17.00" stroke-opacity="1.00" stroke-linejoin="round"/>
<path d="M700.69,1186.57 C701.50,1190.94 707.45,1202.89 711.25,1207.70 C714.61,1211.89 722.60,1219.97 726.94,1223.42 C730.97,1226.61 740.92,1233.22 746.22,1236.10 C751.80,1239.12 763.05,1243.16 769.68,1244.57 C776.12,1245.91 790.30,1247.61 797.48,1247.78 C804.61,1247.94 820.26,1246.70 825.99,1245.88 C830.02,1245.29 844.74,1242.44 852.67,1240.40 C857.24,1239.18 875.01,1233.55 881.65,1230.48 C885.57,1228.65 891.83,1224.93 894.62,1222.70 C899.36,1218.86 906.92,1209.41 908.98,1205.62 C909.81,1204.08 911.59,1199.62 912.20,1197.25" fill="none" stroke="rgb(0, 0, 0)" stroke-width="17.00" stroke-opacity="1.00" stroke-linejoin="round"/>
<path d="M699.95,1154.19 C697.28,1154.09 685.14,1158.15 678.22,1161.67 C672.17,1164.78 660.49,1174.37 656.97,1178.39 C652.55,1183.48 646.14,1194.04 643.24,1201.82 C641.94,1205.36 641.20,1209.01 640.87,1212.98 C640.60,1216.37 641.02,1220.52 641.83,1223.16 C642.72,1225.96 645.69,1232.18 647.56,1234.91 C651.12,1240.05 658.79,1247.53 665.46,1253.05 C671.58,1258.03 682.10,1264.63 684.90,1265.53" fill="none" stroke="rgb(0, 0, 0)" stroke-width="17.00" stroke-opacity="1.00" stroke-linejoin="round"/>
<path d="M920.27,1153.01 C922.88,1153.20 927.51,1155.46 930.52,1158.19 C933.93,1161.35 945.52,1175.37 947.20,1177.81 C950.14,1182.13 955.02,1193.29 956.07,1199.29 C956.70,1203.03 956.96,1208.33 956.70,1211.87 C956.47,1214.82 955.39,1220.35 954.25,1223.81 C952.08,1230.24 945.80,1240.62 941.85,1245.74 C938.23,1250.35 927.65,1260.56 922.67,1264.57 C914.36,1271.24 909.28,1274.00 908.20,1274.43" fill="none" stroke="rgb(0, 0, 0)" stroke-width="17.00" stroke-opacity="1.00" stroke-linejoin="round"/>
<path d="M636.31,1224.24 C635.51,1224.17 631.85,1226.37 629.94,1229.22 C628.88,1230.84 626.89,1236.07 626.10,1239.71 C624.88,1245.55 624.93,1259.58 625.94,1262.15 C627.09,1264.93 629.49,1268.64 632.02,1271.41 C634.87,1274.49 644.26,1280.72 648.66,1282.71" fill="none" stroke="rgb(0, 0, 0)" stroke-width="17.00" stroke-opacity="1.00" stroke-linejoin="round"/>
<path d="M626.35,1249.70 C622.44,1250.27 618.12,1250.70 616.19,1251.25 C609.46,1253.18 597.93,1258.96 591.51,1263.76 C585.98,1267.92 574.78,1278.67 571.99,1281.71 C567.38,1286.87 559.12,1296.62 554.65,1303.47 C550.06,1310.71 542.44,1322.72 539.22,1330.36 C537.68,1334.02 536.18,1338.07 535.70,1339.40" fill="none" stroke="rgb(0, 0, 0)" stroke-width="17.00" stroke-opacity="1.00" stroke-linejoin="round"/>
<path d="M950.65,1229.57 C956.51,1231.02 967.91,1236.04 974.51,1240.10 C978.54,1242.60 990.54,1251.56 996.33,1256.52 C999.49,1259.27 1012.69,1271.74 1016.08,1275.39 C1020.68,1280.46 1031.37,1292.77 1034.71,1297.46 C1035.32,1298.33 1037.27,1300.97 1037.96,1301.90" fill="none" stroke="rgb(0, 0, 0)" stroke-width="17.00" stroke-opacity="1.00" stroke-linejoin="round"/>
<path d="M754.92,757.57 C751.83,757.47 744.84,757.26 743.05,757.51 C741.92,757.69 735.35,759.97 732.25,761.49 C729.04,763.08 723.63,766.56 720.97,768.78 C718.27,771.05 713.26,776.41 711.03,779.41 C706.74,785.24 701.55,796.89 700.00,802.12 C698.36,807.68 696.75,819.03 696.95,824.34 C697.08,827.38 697.68,832.01 698.37,835.17 C699.04,838.12 701.63,845.15 703.62,848.66 C705.56,852.01 710.47,858.05 713.37,860.68 C716.39,863.38 722.73,867.45 725.45,868.73 C730.65,871.14 741.20,873.73 747.01,873.78 C749.88,873.79 756.32,873.06 759.34,872.21 C762.69,871.25 767.97,868.86 771.02,866.92 C773.79,865.13 779.19,860.26 781.25,857.83 C785.69,852.51 791.77,840.09 793.48,834.64 C795.51,828.08 797.62,815.09 797.75,809.07 C797.88,802.08 796.15,788.82 793.94,782.74 C792.42,778.57 789.75,773.03 788.17,770.88 C786.04,768.04 783.15,764.86 781.02,763.15 C778.94,761.52 775.06,759.34 772.20,758.12 C768.52,756.60 755.67,754.76 748.95,755.16 C743.56,755.51 732.11,758.67 729.84,759.56" fill="none" stroke="rgb(0, 0, 0)" stroke-width="17.00" stroke-opacity="1.00" stroke-linejoin="round"/>
<path d="M935.08,754.01 C931.11,754.35 926.71,755.65 924.23,756.78 C921.04,758.27 915.80,761.81 912.70,764.62 C909.76,767.33 905.68,773.07 904.42,775.62 C902.83,778.89 901.02,786.19 900.66,789.72 C900.09,795.73 901.86,808.88 903.49,814.26 C904.16,816.44 906.47,822.31 908.21,825.49 C910.05,828.80 914.96,834.98 917.43,837.09 C920.03,839.26 925.93,842.44 927.61,843.04 C931.18,844.28 937.99,844.84 941.40,844.29 C944.95,843.67 951.49,840.82 954.97,838.34 C956.69,837.08 961.12,832.81 963.08,830.35 C965.39,827.42 968.32,822.61 970.05,818.90 C971.46,815.83 973.21,810.27 973.70,807.08 C974.04,804.81 974.56,796.86 974.45,794.39 C974.25,790.53 972.68,783.33 971.32,780.10 C969.89,776.77 966.68,771.50 964.38,768.63 C962.39,766.17 956.70,760.74 956.32,760.42 C953.93,758.44 947.17,754.52 946.13,754.11 C944.40,753.44 940.13,753.07 938.23,752.95" fill="none" stroke="rgb(0, 0, 0)" stroke-width="17.00" stroke-opacity="1.00" stroke-linejoin="round"/>
<path d="M1089.92,685.30 C1089.92,685.30 1090.97,685.50 1090.97,685.50 C1091.81,688.23 1094.10,705.78 1095.06,713.47 C1095.68,719.18 1096.00,730.87 1096.13,736.26" fill="none" stroke="rgb(0, 0, 0)" stroke-width="17.00" stroke-opacity="1.00" stroke-linejoin="round"/>
</g>
</svg>
